<?xml version="1.0" encoding="iso-8859-1"?>
<!-- Uploaded to: SVG Repo, www.svgrepo.com, Generator: SVG Repo Mixer Tools -->
<!DOCTYPE svg PUBLIC "-//W3C//DTD SVG 1.1//EN" "http://www.w3.org/Graphics/SVG/1.1/DTD/svg11.dtd">
<svg fill="#000000" version="1.1" id="Capa_1" xmlns="http://www.w3.org/2000/svg" xmlns:xlink="http://www.w3.org/1999/xlink" 
	 width="800px" height="800px" viewBox="0 0 194.052 194.052"
	 xml:space="preserve">
<g>
	<g>
		<path d="M0.205,53.285c0,1.484,1.21,2.7,2.7,2.7h38.979c1.83,7.116,5.782,13.392,11.171,18.101
			c0.119,0.114,0.253,0.222,0.367,0.335c0.189,0.146,0.374,0.319,0.562,0.475c3.343,2.956,7.312,5.524,11.897,7.626H34.809
			c-1.479,0-2.7,1.205-2.7,2.7c0,1.474,1.221,2.7,2.7,2.7h53.779c0.453,0.021,0.875,0.087,1.329,0.108
			c1.635,0.087,3.227,0.113,4.747,0.113c1.922,0,3.701-0.113,5.474-0.222h6.19v3.607c-0.537,4.459-0.77,9.395-0.517,14.974
			c0.095,2.099,0.274,4.103,0.517,6.054v46.871c0,1.486,1.213,2.699,2.7,2.699s2.7-1.213,2.7-2.699v-27.981
			c2.035,4.24,4.493,7.921,7.277,11.063c0.116,0.138,0.242,0.285,0.348,0.412c0.148,0.158,0.316,0.337,0.475,0.517
			c4.768,5.474,11.159,9.45,18.426,11.222v36.692c0,1.487,1.213,2.7,2.7,2.7s2.7-1.213,2.7-2.7v-35.785
			c0.453,0.053,0.917,0.063,1.381,0.084c0.865,9.951,9.461,17.851,20.082,17.93l16.537,0.138c0.031,0,0.063,0,0.084,0
			c3.555,0,6.74-2.342,8.997-6.582c1.951-3.707,3.069-8.653,3.111-13.9c0.084-9.787-4.271-17.218-10.125-17.266
			c-0.021,0-0.042,0-0.053,0c-2.689,0-5.21,2.226-7.088,6.275c-1.487,3.238-2.394,7.204-2.437,10.674
			c-0.031,3,0.349,6.075,1.034,8.438c1.371,4.799,3.755,5.812,5.516,5.832c0.021,0,0.042,0,0.053,0c1.435,0,2.843-0.686,4.103-1.972
			c1.013-1.034,1.846-2.373,2.447-3.935c-0.358,1.224-0.812,2.353-1.35,3.344c-1.245,2.362-2.785,3.702-4.209,3.702
			c-0.01,0-0.01,0-0.021,0l-16.548-0.138c-8.29-0.073-14.967-6.476-14.914-14.28c0.021-3.617,1.498-7.045,4.166-9.65
			c2.858-2.815,6.697-4.355,10.821-4.355c0.063,0,0.116,0,0.158,0l2.5,0.021c-1.904,6.012-4.451,18.004,1.466,26.8
			c0.833,1.234,2.521,1.551,3.744,0.728c1.239-0.833,1.571-2.51,0.738-3.744c-6.402-9.492,0.306-25.217,0.358-25.375
			c0.354-0.818,0.285-1.793-0.211-2.553c-0.495-0.76-1.339-1.224-2.246-1.224l-6.317-0.053c-5.833,0.053-10.89,2.036-14.809,5.906
			c-2.795,2.742-4.63,6.149-5.389,9.841c-0.538-0.032-1.055-0.032-1.593-0.101V96.482c7.857,1.519,13.88,8.048,14.766,16.116
			c-1.145,0.422-2.204,1.064-3.069,1.961c-1.646,1.667-2.531,3.871-2.51,6.213c0.021,2.336,0.959,4.535,2.62,6.17
			c1.651,1.613,3.829,2.51,6.144,2.51c2.363,0,4.588-0.928,6.249-2.626c3.375-3.438,3.322-8.997-0.11-12.382
			c-1.107-1.087-2.489-1.772-3.955-2.131c-0.485-5.062-2.531-9.64-5.695-13.289c2.773-1.34,4.841-3.396,6.075-6.244
			c4.303-9.848-2.985-25.32-3.291-25.979c-0.422-0.886-1.286-1.474-2.288-1.526c-1.002-0.087-1.909,0.443-2.447,1.284
			c-2.975,4.833-5.21,6.739-7.657,8.121c-1.698,0.962-3.354,1.938-4.83,2.998V54.749c0.011-0.356,0.063-0.707,0.063-1.062
			c0-0.108-0.053-0.19-0.063-0.298v-0.134c0-1.475-1.213-2.7-2.7-2.7h-22.528c1.16-1.571,2.236-3.354,3.285-5.224
			c1.388-2.444,3.275-4.68,8.127-7.657c0.838-0.527,1.323-1.458,1.271-2.444c-0.058-0.989-0.633-1.87-1.529-2.292
			c-0.396-0.187-9.866-4.659-18.609-4.659c-8.016,0-11.812,3.694-13.616,7.436c-3.628-3.143-8.177-5.178-13.205-5.677
			c-0.355-1.445-1.062-2.811-2.181-3.963c-3.267-3.319-9.022-3.396-12.393-0.108c-3.44,3.386-3.488,8.944-0.108,12.382
			c1.669,1.685,3.881,2.626,6.241,2.626c2.312,0,4.488-0.896,6.141-2.513c0.907-0.896,1.561-1.938,1.993-3.057
			c8.185,0.918,14.734,7.119,16.115,15.148H46.311c-0.092-0.665-0.113-1.318-0.145-1.983c3.694-0.749,7.095-2.586,9.837-5.366
			c3.863-3.939,5.962-9.187,5.92-14.818l-0.066-6.328c-0.01-0.896-0.464-1.74-1.236-2.236c-0.76-0.509-1.717-0.562-2.553-0.211
			c-0.152,0.063-15.889,6.75-25.365,0.356c-1.236-0.831-2.911-0.52-3.73,0.741c-0.841,1.234-0.525,2.898,0.73,3.731
			c8.785,5.951,20.782,3.364,26.799,1.463l0.021,2.521c0.037,4.185-1.511,8.079-4.369,10.979c-2.603,2.645-6.03,4.124-9.65,4.158
			c-0.042,0-0.089,0-0.113,0c-7.754,0-14.088-6.653-14.159-14.906l-0.14-16.545c0-0.799,0.401-1.648,1.226-2.468
			c1.263-1.284,3.322-2.365,5.811-3.099c-1.545,0.599-2.884,1.435-3.937,2.423c-1.297,1.273-1.982,2.7-1.961,4.147
			c0.055,6.373,11.886,6.571,14.289,6.594c6.929-0.076,16.983-3.842,16.94-9.584C60.394,4.324,53.11,0,43.45,0
			c-0.087,0-0.174,0-0.266,0c-7.539,0.063-14.151,2.257-17.711,5.885c-1.83,1.856-2.792,4.04-2.771,6.317l0.137,16.53
			c0.095,10.631,7.992,19.229,17.938,20.094c0.026,0.588,0.031,1.192,0.092,1.759H2.884C1.415,50.585,0.205,51.801,0.205,53.285z
			 M181.036,161.572c-0.653-1.165-1.497-4.351-1.461-8.611c0.021-2.199,0.443-4.313,1.013-6.128
			c0.116,0.518,0.401,1.008,0.833,1.371c0.76,0.665,1.593,2.447,1.704,5.479C183.33,158.197,181.722,160.798,181.036,161.572z
			 M184.997,144.165c-0.518-0.453-1.15-0.675-1.783-0.675c-0.495,0-1.002,0.132-1.434,0.411c0.738-1.439,1.466-2.357,1.908-2.516
			c1.904,0.021,4.583,4.219,4.772,10.858C188.118,148.679,186.911,145.847,184.997,144.165z M161.625,117.376
			c0.886,0,1.719,0.332,2.357,0.96c1.318,1.297,1.339,3.448,0.058,4.767c-0.633,0.633-1.487,1.002-2.395,1.002
			c-0.886,0-1.708-0.332-2.367-0.97c-0.628-0.622-1.008-1.466-1.018-2.362c0-0.896,0.337-1.74,0.976-2.379
			C159.869,117.729,160.718,117.376,161.625,117.376z M143.68,85.221c0.785-1.463,2.8-3.164,7.478-5.798
			c2.547-1.437,4.635-3.219,6.671-5.769c1.761,5.094,3.433,12.382,1.418,16.999c-0.896,2.048-2.457,3.383-4.735,4.105l-0.189,0.011
			c-0.164,0-0.775-0.068-1.229-0.343c5.568-4.053,5.278-9.708,5.257-9.993c-0.11-1.484-1.418-2.668-2.9-2.479
			c-1.471,0.113-2.589,1.413-2.479,2.9c0,0.042,0.27,4.24-5.5,6.571c-0.084,0.032-0.132,0.108-0.205,0.134
			c-1.166,0.158-2.685-0.253-3.586-2.813V85.221L143.68,85.221z M78.08,34.651c-1.276,1.234-3.488,1.224-4.754-0.055
			c-1.289-1.318-1.268-3.462,0.045-4.746c0.63-0.623,1.463-0.973,2.365-0.973c0.907,0,1.753,0.346,2.392,1.016
			C79.425,31.216,79.401,33.344,78.08,34.651z M138.279,149.001c-5.427-1.683-10.647-4.957-15.019-9.824
			c-4.293-5.248-6.871-11.945-6.871-19.232c0-12.482,9.682-22.618,21.916-23.594v52.65H138.279z M138.279,84.277
			c-0.49,1.582-0.564,3.341,0,5.376v1.205c-12.814,0.82-23.383,9.938-26.404,22.046c-0.042-0.264-0.095-0.512-0.121-0.765V91.446
			c0.242-1.898,0.575-3.628,0.938-5.302c10.347-2.468,17.118-6.803,21.305-10.811c1.624-1.55,3.043-3.219,4.282-4.967V84.277z
			 M130.259,71.429c-3.26,3.122-8.385,6.444-15.947,8.68c2.226-6.497,5.289-10.937,8.132-13.911
			c4.292-4.493,9.787-7.183,15.356-7.805C136.745,63.152,134.129,67.727,130.259,71.429z M111,33.71
			c4.107,0,8.574,1.227,11.797,2.344c-2.548,2.036-4.324,4.126-5.743,6.663c-3.27,5.833-5.036,7.913-7.425,7.868h-0.349
			c-0.337-0.031-0.712-0.108-1.086-0.211c-1.435-0.398-2.362-1.031-2.795-1.901c-0.358-0.728-0.338-1.592-0.242-2.31
			c2.246-5.265,6.085-5.275,6.507-5.286c1.461,0.177,2.748-1.016,2.843-2.489c0.11-1.474-0.997-2.787-2.479-2.89
			c-0.285-0.056-5.933-0.33-9.978,5.255c-0.29-0.498-0.391-1.139-0.343-1.35C102.457,36.961,104.25,33.71,111,33.71z
			 M105.579,55.985h3.907c0.063,0,0.121,0.034,0.174,0.034c0.09,0,0.158-0.034,0.232-0.034h17.265
			c-3.101,1.616-6.021,3.765-8.627,6.476c-3.713,3.871-7.688,9.978-10.23,19.045c-2.579,0.464-5.337,0.799-8.396,1.016H88.686
			c-1.756-0.114-3.478-0.309-5.115-0.541C95.554,79.001,104.598,68.623,105.579,55.985z M100.062,55.985
			c-1.16,12.036-11.211,21.502-23.538,21.502c-7.29,0-13.987-2.586-19.219-6.863c-4.775-4.271-8.002-9.342-9.737-14.639H100.062z
			 M55.091,10.069c-0.15,0.464-1.068,1.226-2.479,1.938c0.562-0.97,0.475-2.236-0.324-3.132c-1.69-1.917-4.562-3.119-8.147-3.459
			C50.732,5.603,55.07,8.326,55.091,10.069z M48.254,12.45c0.369,0.422,0.833,0.696,1.329,0.823
			c-1.809,0.588-3.921,1.012-6.081,1.042c-4.066-0.076-7.312-0.788-8.527-1.437c0.907-0.865,3.457-2.354,7.81-2.138
			C45.815,10.857,47.592,11.701,48.254,12.45z"/>
	</g>
</g>
</svg>