<?xml version="1.0" encoding="iso-8859-1"?>
<!-- Uploaded to: SVG Repo, www.svgrepo.com, Generator: SVG Repo Mixer Tools -->
<!DOCTYPE svg PUBLIC "-//W3C//DTD SVG 1.1//EN" "http://www.w3.org/Graphics/SVG/1.1/DTD/svg11.dtd">
<svg fill="#000000" version="1.1" id="Capa_1" xmlns="http://www.w3.org/2000/svg" xmlns:xlink="http://www.w3.org/1999/xlink" 
	 width="800px" height="800px" viewBox="0 0 187.951 187.95"
	 xml:space="preserve">
<g>
	<g>
		<path d="M74.482,22.868c3.196,3.673,10.323,10.47,19.385,10.47c0.535,0,1.041-0.021,1.582-0.082
			c3.941-0.34,7.185-3.04,10.043-5.442c1.92-1.603,4.103-3.422,5.596-3.422c0.005,0,0.005,0,0.01,0
			c0.865,0.089,1.229,0.598,2.025,2.352c0.664,1.458,1.771,3.862,4.856,3.862c0.011,0,0.021,0,0.032,0
			c1.804-0.147,3.459-1.075,4.783-2.647c2.479-2.953,3.665-7.987,3.18-13.479C125.226,6.096,120.965,0,115.85,0
			c-0.085,0-0.475,0.021-0.56,0.021c-3.016,0.274-3.733,3.133-4.145,4.654c-0.479,1.875-0.743,2.437-2.035,2.75
			c-1.403,0-3.576-1.236-5.686-2.437c-3.227-1.824-6.939-3.931-10.847-3.575C80.523,2.499,73.665,15.356,72.576,17.592
			c-5.471,2.16-10.196,5.74-13.792,10.275c-2.624,3.035-4.947,6.589-6.848,10.671H3.483c-1.492,0-2.7,1.216-2.7,2.7
			c0,1.489,1.208,2.7,2.7,2.7h46.319c-1.674,4.992-2.79,10.568-3.109,16.822c-0.211,4.05-0.098,7.667,0.156,11.084H36.78
			c-1.492,0-2.7,1.211-2.7,2.7c0,1.479,1.208,2.7,2.7,2.7h10.642c1.859,12.34,6.534,20.028,10.8,24.563
			c5.002,5.306,11.551,8.543,18.199,9.107c0.627,6.581,3.678,12.846,8.959,17.835c4.712,4.424,12.857,9.318,26.104,11v12.203
			c0,1.486,1.207,2.699,2.699,2.699c1.477,0,2.7-1.213,2.7-2.699v-11.729c1.466,0.09,2.89,0.18,4.472,0.18
			c1.63,0,3.322-0.048,5.062-0.121c6.888-0.369,12.994-1.688,18.342-3.655v48.621c0,1.498,1.218,2.7,2.699,2.7
			c1.498,0,2.7-1.202,2.7-2.7v-50.92c3.66-1.851,6.835-4.061,9.561-6.519c0.175-0.131,0.343-0.3,0.522-0.442
			c0.121-0.11,0.253-0.232,0.369-0.332c3.881-3.444,6.945-7.736,8.891-12.593c2.052-1.013,15.151-7.868,16.237-20.05
			c0.354-3.935-1.729-7.607-3.57-10.858c-1.286-2.257-2.747-4.833-2.362-6.117c0.242-0.844,0.812-1.107,2.679-1.593
			c1.529-0.39,4.383-1.128,4.656-4.147c0.47-5.302-5.742-9.888-14.459-10.676c-8.865-0.799-15.673,2.731-16.127,7.939
			c-0.279,3.021,2.405,4.253,3.855,4.917c1.74,0.789,2.268,1.168,2.362,2.015c0.127,1.339-1.751,3.607-3.428,5.611
			c-2.373,2.845-5.078,6.096-5.442,10.038c-0.875,9.795,6.528,17.605,10.41,20.97c-1.529,3.606-3.86,7.045-6.972,10.104
			c-2.141,1.951-4.524,3.597-7.183,4.83V38.538H58.902c1.237-3.164,3.056-6.064,5.4-8.651C67.387,26.76,70.846,24.408,74.482,22.868
			z M93.48,6.787c2.181,0,4.783,1.474,7.293,2.911c3.507,1.986,7.062,3.808,10.294,2.861c3.939-1.129,4.836-4.633,5.321-6.523
			c0.031-0.124,0.073-0.279,0.11-0.433c1.461,0.791,3.612,3.977,4.098,9.366c0.396,4.509-0.691,8.023-1.925,9.519
			c-0.121,0.147-0.279,0.313-0.433,0.442c-0.079-0.14-0.137-0.295-0.195-0.422c-0.812-1.764-2.331-5.052-6.392-5.468
			c-0.105-0.01-0.59-0.037-0.686-0.037c-3.316,0-6.18,2.375-8.928,4.675c-2.367,1.972-4.801,4.008-7.059,4.2
			c-0.377,0.039-0.751,0.061-1.107,0.061c-5.643,0-10.557-3.797-13.603-6.821c0.082-0.011,0.129-0.026,0.216-0.037
			c1.458-0.227,2.9-0.422,4.385-0.422c0.021,0,0.042-0.005,0.066-0.005c0.037,0,0.063-0.005,0.098,0
			c1.242,2.953,4.082,5.018,7.467,5.018c0.087,0,0.649-0.04,0.728-0.04c2.183-0.193,4.168-1.229,5.566-2.903
			c1.403-1.685,2.078-3.797,1.878-5.978c-0.375-4.256-3.895-7.47-8.166-7.47c-0.082,0-0.644,0.034-0.73,0.039
			c-3.488,0.316-6.241,2.785-7.138,5.959c-0.082,0-0.156,0.019-0.232,0.019c-1.453,0.021-2.855,0.129-4.25,0.335
			C82.835,11.96,87.381,7.322,93.48,6.787z M89.715,17.737c-0.129-1.532,1-2.893,2.782-3.041c1.437,0,2.655,1.118,2.787,2.55
			c0.079,0.746-0.153,1.463-0.628,2.041c-0.49,0.567-1.165,0.923-1.906,1.005l-0.253,2.71v-2.7
			C91.06,20.276,89.838,19.163,89.715,17.737z M169.745,99.229c-0.032,0-0.053-0.01-0.085-0.01l-0.189-1.951
			c-0.749-0.063-1.413-0.406-1.894-0.997c-0.479-0.564-0.706-1.292-0.638-2.046c0.121-1.413,1.329-2.523,3.017-2.523
			c0,0,0.011,0,0.021,0c1.529,0.129,2.669,1.49,2.537,3.035c-0.121,1.461-1.318,2.541-2.769,2.541V99.229L169.745,99.229z
			 M159.324,92.016c0.201-2.265,2.247-4.704,4.209-7.068c2.462-2.953,5.02-6.007,4.641-9.619c-0.417-4.055-3.713-5.556-5.464-6.37
			c-0.126-0.066-0.295-0.132-0.433-0.2c1.045-1.355,4.989-2.813,9.967-2.365c5.216,0.464,8.554,2.592,9.366,4.092
			c-0.147,0.04-0.316,0.082-0.433,0.113c-1.898,0.485-5.39,1.395-6.528,5.326c-1.013,3.48,0.97,6.932,2.858,10.286
			c1.519,2.668,3.09,5.432,2.89,7.688c-0.538,5.886-5.179,10.347-8.87,12.994c0.222-1.519,0.358-3.048,0.369-4.63
			c3.206-0.887,5.653-3.565,5.964-7.057c0.396-4.482-2.932-8.466-7.425-8.888c-0.079-0.006-0.659-0.032-0.743-0.032
			c-4.271,0-7.763,3.207-8.153,7.454c-0.2,2.173,0.475,4.313,1.878,5.98c0.844,1.013,1.914,1.751,3.09,2.257
			c0,1.571-0.189,3.111-0.433,4.609c-0.01,0.031-0.01,0.073-0.021,0.105C162.878,103.485,158.781,98.122,159.324,92.016z
			 M52.11,61.045c0.103-1.856,0.285-3.639,0.524-5.371c1.867,6.851,6.289,12.593,12.256,16.171H52.276
			C52.018,68.557,51.899,65.037,52.11,61.045z M84.375,98.112c1.315-0.665,1.856-2.268,1.213-3.597
			c-0.662-1.329-2.278-1.883-3.618-1.239c-0.232,0.116-4.817,2.521-5.561,8.723c-0.292-0.222-0.524-0.475-0.572-0.633
			c-0.503-2.137-0.168-3.966,1.016-5.58c2.623-3.639,8.951-5.697,13.79-6.705c-0.997,2.724-1.408,5.155-1.361,7.771
			c0.143,8.564-1.176,9.524-3.346,10.083c-0.551,0.137-1.044,0.222-1.487,0.222c-1.592-0.011-2.315-1.118-2.666-1.993
			C81.108,100.079,84.006,98.308,84.375,98.112z M111.504,107.378c-0.011,0.337-0.095,0.664-0.095,1.012
			c0,0.312,0.084,0.57,0.095,0.876v25.054c-11.411-1.587-18.383-5.732-22.398-9.508c-3.771-3.564-6.205-8.021-7.101-12.646
			c0.744,0.211,1.516,0.369,2.413,0.369s1.859-0.127,2.84-0.38c7.043-1.846,7.518-8.343,7.394-15.414
			c-0.048-2.558,0.422-5.213,2.879-9.819c0.464-0.867,0.409-1.928-0.132-2.753c-0.543-0.825-1.45-1.273-2.483-1.215
			c-0.675,0.066-16.546,1.513-22.452,9.648c-2.122,2.921-2.76,6.275-1.901,9.978c0.114,0.5,0.356,1.033,0.67,1.561
			c-3.298-1.25-6.436-3.248-9.068-6.027c-3.607-3.829-7.538-10.357-9.26-20.862h58.601V107.378L111.504,107.378z M126.165,134.873
			c-3.369,0.169-6.392,0.105-9.26-0.073v-10.379c3.586,4.799,8.701,8.301,14.628,9.925
			C129.798,134.589,128.021,134.783,126.165,134.873z M144.801,129.283c-1.931,0.443-3.935,0.718-6.001,0.738
			c-0.048,0-0.105,0-0.148,0c-11.664,0-21.188-9.229-21.731-20.788v-1.898c0.422-8.174,6.64-14.766,14.66-15.828
			c0.417,1.016,1.028,1.933,1.872,2.761c1.551,1.498,3.617,2.353,5.774,2.353c2.114,0,4.061-0.812,5.59-2.215L144.801,129.283
			L144.801,129.283z M137.123,86.271c0.554-0.569,1.298-0.886,2.094-0.886c0.765,0,1.472,0.29,2.02,0.814
			c1.155,1.118,1.192,2.964,0.063,4.127c-0.559,0.566-1.297,0.891-2.088,0.891c-0.76,0-1.466-0.292-2.015-0.817
			C136.042,89.276,136.005,87.426,137.123,86.271z M105.904,43.938h38.897v38.264c-3.217-2.932-8.522-2.824-11.56,0.313
			c-1.018,1.036-1.571,2.318-1.925,3.628c-5.753,0.633-10.826,3.415-14.412,7.576V71.845H91.389
			c5.168-3.572,8.678-9.292,9.442-15.865c1.35-0.356,2.594-1.021,3.628-2.02C107.228,51.305,107.703,47.157,105.904,43.938z
			 M96.666,45.905c0.545-0.53,1.258-0.805,2.009-0.805c0.796,0,1.551,0.316,2.114,0.878c1.107,1.168,1.081,3.014-0.073,4.132
			c-1.118,1.081-3.04,1.026-4.132-0.082c-0.551-0.562-0.831-1.284-0.81-2.067C95.774,47.179,96.093,46.451,96.666,45.905z
			 M91.465,43.938c-0.675,1.195-1.076,2.523-1.097,3.926c-0.042,2.22,0.788,4.319,2.344,5.919c0.794,0.82,1.728,1.464,2.753,1.896
			c-1.084,8.292-8.132,14.736-16.706,14.736c-0.045,0-0.087,0-0.124,0c-12.037-0.098-21.742-9.964-21.666-21.985
			c0.011-1.511,0.222-3.008,0.475-4.472h34.027v-0.021H91.465z"/>
	</g>
</g>
</svg>