<?xml version="1.0" encoding="UTF-8"?>
<svg xmlns="http://www.w3.org/2000/svg" xmlns:xlink="http://www.w3.org/1999/xlink" width="2500" height="1600" viewBox="0 0 2500 1600">
<defs>
<linearGradient id="linear-pattern-0" gradientUnits="userSpaceOnUse" x1="0.000000000000000222" y1="0" x2="1" y2="0" gradientTransform="matrix(0, -1600, 1600, 0, 1250, 1600)">
<stop offset="0" stop-color="rgb(99.998474%, 99.998474%, 99.998474%)" stop-opacity="1"/>
<stop offset="0.00390625" stop-color="rgb(99.784851%, 99.591064%, 99.519348%)" stop-opacity="1"/>
<stop offset="0.0078125" stop-color="rgb(99.571228%, 99.183655%, 99.041748%)" stop-opacity="1"/>
<stop offset="0.0117188" stop-color="rgb(99.357605%, 98.777771%, 98.564148%)" stop-opacity="1"/>
<stop offset="0.015625" stop-color="rgb(99.145508%, 98.373413%, 98.088074%)" stop-opacity="1"/>
<stop offset="0.0195312" stop-color="rgb(98.933411%, 97.969055%, 97.613525%)" stop-opacity="1"/>
<stop offset="0.0234375" stop-color="rgb(98.721313%, 97.566223%, 97.140503%)" stop-opacity="1"/>
<stop offset="0.0273438" stop-color="rgb(98.510742%, 97.164917%, 96.669006%)" stop-opacity="1"/>
<stop offset="0.03125" stop-color="rgb(98.300171%, 96.763611%, 96.19751%)" stop-opacity="1"/>
<stop offset="0.0351562" stop-color="rgb(98.091125%, 96.363831%, 95.727539%)" stop-opacity="1"/>
<stop offset="0.0390625" stop-color="rgb(97.88208%, 95.965576%, 95.259094%)" stop-opacity="1"/>
<stop offset="0.0429688" stop-color="rgb(97.673035%, 95.567322%, 94.792175%)" stop-opacity="1"/>
<stop offset="0.046875" stop-color="rgb(97.463989%, 95.170593%, 94.326782%)" stop-opacity="1"/>
<stop offset="0.0507812" stop-color="rgb(97.25647%, 94.775391%, 93.862915%)" stop-opacity="1"/>
<stop offset="0.0546875" stop-color="rgb(97.050476%, 94.381714%, 93.399048%)" stop-opacity="1"/>
<stop offset="0.0585938" stop-color="rgb(96.844482%, 93.988037%, 92.936707%)" stop-opacity="1"/>
<stop offset="0.0625" stop-color="rgb(96.638489%, 93.595886%, 92.475891%)" stop-opacity="1"/>
<stop offset="0.0664062" stop-color="rgb(96.432495%, 93.205261%, 92.016602%)" stop-opacity="1"/>
<stop offset="0.0703125" stop-color="rgb(96.228027%, 92.816162%, 91.558838%)" stop-opacity="1"/>
<stop offset="0.0742188" stop-color="rgb(96.02356%, 92.427063%, 91.1026%)" stop-opacity="1"/>
<stop offset="0.078125" stop-color="rgb(95.820618%, 92.03949%, 90.646362%)" stop-opacity="1"/>
<stop offset="0.0820312" stop-color="rgb(95.617676%, 91.653442%, 90.19165%)" stop-opacity="1"/>
<stop offset="0.0859375" stop-color="rgb(95.414734%, 91.267395%, 89.738464%)" stop-opacity="1"/>
<stop offset="0.0898438" stop-color="rgb(95.213318%, 90.882874%, 89.286804%)" stop-opacity="1"/>
<stop offset="0.09375" stop-color="rgb(95.011902%, 90.499878%, 88.83667%)" stop-opacity="1"/>
<stop offset="0.0976562" stop-color="rgb(94.810486%, 90.116882%, 88.388062%)" stop-opacity="1"/>
<stop offset="0.101562" stop-color="rgb(94.610596%, 89.735413%, 87.939453%)" stop-opacity="1"/>
<stop offset="0.105469" stop-color="rgb(94.410706%, 89.355469%, 87.493896%)" stop-opacity="1"/>
<stop offset="0.109375" stop-color="rgb(94.212341%, 88.977051%, 87.04834%)" stop-opacity="1"/>
<stop offset="0.113281" stop-color="rgb(94.013977%, 88.600159%, 86.604309%)" stop-opacity="1"/>
<stop offset="0.117188" stop-color="rgb(93.817139%, 88.223267%, 86.161804%)" stop-opacity="1"/>
<stop offset="0.121094" stop-color="rgb(93.6203%, 87.8479%, 85.720825%)" stop-opacity="1"/>
<stop offset="0.125" stop-color="rgb(93.423462%, 87.472534%, 85.281372%)" stop-opacity="1"/>
<stop offset="0.128906" stop-color="rgb(93.226624%, 87.10022%, 84.841919%)" stop-opacity="1"/>
<stop offset="0.132812" stop-color="rgb(93.031311%, 86.727905%, 84.403992%)" stop-opacity="1"/>
<stop offset="0.136719" stop-color="rgb(92.835999%, 86.357117%, 83.969116%)" stop-opacity="1"/>
<stop offset="0.140625" stop-color="rgb(92.642212%, 85.986328%, 83.534241%)" stop-opacity="1"/>
<stop offset="0.144531" stop-color="rgb(92.448425%, 85.617065%, 83.100891%)" stop-opacity="1"/>
<stop offset="0.148438" stop-color="rgb(92.256165%, 85.249329%, 82.669067%)" stop-opacity="1"/>
<stop offset="0.152344" stop-color="rgb(92.063904%, 84.883118%, 82.23877%)" stop-opacity="1"/>
<stop offset="0.15625" stop-color="rgb(91.871643%, 84.516907%, 81.808472%)" stop-opacity="1"/>
<stop offset="0.160156" stop-color="rgb(91.679382%, 84.153748%, 81.381226%)" stop-opacity="1"/>
<stop offset="0.164062" stop-color="rgb(91.488647%, 83.790588%, 80.953979%)" stop-opacity="1"/>
<stop offset="0.167969" stop-color="rgb(91.299438%, 83.428955%, 80.528259%)" stop-opacity="1"/>
<stop offset="0.171875" stop-color="rgb(91.110229%, 83.067322%, 80.104065%)" stop-opacity="1"/>
<stop offset="0.175781" stop-color="rgb(90.921021%, 82.707214%, 79.681396%)" stop-opacity="1"/>
<stop offset="0.179688" stop-color="rgb(90.731812%, 82.348633%, 79.260254%)" stop-opacity="1"/>
<stop offset="0.183594" stop-color="rgb(90.544128%, 81.991577%, 78.840637%)" stop-opacity="1"/>
<stop offset="0.1875" stop-color="rgb(90.357971%, 81.634521%, 78.421021%)" stop-opacity="1"/>
<stop offset="0.191406" stop-color="rgb(90.171814%, 81.278992%, 78.00293%)" stop-opacity="1"/>
<stop offset="0.195312" stop-color="rgb(89.985657%, 80.924988%, 77.586365%)" stop-opacity="1"/>
<stop offset="0.199219" stop-color="rgb(89.7995%, 80.57251%, 77.172852%)" stop-opacity="1"/>
<stop offset="0.203125" stop-color="rgb(89.614868%, 80.220032%, 76.759338%)" stop-opacity="1"/>
<stop offset="0.207031" stop-color="rgb(89.430237%, 79.86908%, 76.347351%)" stop-opacity="1"/>
<stop offset="0.210938" stop-color="rgb(89.247131%, 79.519653%, 75.93689%)" stop-opacity="1"/>
<stop offset="0.214844" stop-color="rgb(89.064026%, 79.171753%, 75.527954%)" stop-opacity="1"/>
<stop offset="0.21875" stop-color="rgb(88.882446%, 78.823853%, 75.119019%)" stop-opacity="1"/>
<stop offset="0.222656" stop-color="rgb(88.700867%, 78.479004%, 74.713135%)" stop-opacity="1"/>
<stop offset="0.226562" stop-color="rgb(88.519287%, 78.134155%, 74.307251%)" stop-opacity="1"/>
<stop offset="0.230469" stop-color="rgb(88.339233%, 77.790833%, 73.902893%)" stop-opacity="1"/>
<stop offset="0.234375" stop-color="rgb(88.15918%, 77.44751%, 73.500061%)" stop-opacity="1"/>
<stop offset="0.238281" stop-color="rgb(87.980652%, 77.105713%, 73.098755%)" stop-opacity="1"/>
<stop offset="0.242188" stop-color="rgb(87.802124%, 76.765442%, 72.698975%)" stop-opacity="1"/>
<stop offset="0.246094" stop-color="rgb(87.623596%, 76.426697%, 72.30072%)" stop-opacity="1"/>
<stop offset="0.25" stop-color="rgb(87.446594%, 76.087952%, 71.903992%)" stop-opacity="1"/>
<stop offset="0.253906" stop-color="rgb(87.269592%, 75.752258%, 71.508789%)" stop-opacity="1"/>
<stop offset="0.257812" stop-color="rgb(87.09259%, 75.416565%, 71.113586%)" stop-opacity="1"/>
<stop offset="0.261719" stop-color="rgb(86.917114%, 75.082397%, 70.721436%)" stop-opacity="1"/>
<stop offset="0.265625" stop-color="rgb(86.743164%, 74.74823%, 70.329285%)" stop-opacity="1"/>
<stop offset="0.269531" stop-color="rgb(86.569214%, 74.417114%, 69.940186%)" stop-opacity="1"/>
<stop offset="0.273438" stop-color="rgb(86.395264%, 74.085999%, 69.551086%)" stop-opacity="1"/>
<stop offset="0.277344" stop-color="rgb(86.221313%, 73.756409%, 69.163513%)" stop-opacity="1"/>
<stop offset="0.28125" stop-color="rgb(86.048889%, 73.428345%, 68.777466%)" stop-opacity="1"/>
<stop offset="0.285156" stop-color="rgb(85.876465%, 73.100281%, 68.392944%)" stop-opacity="1"/>
<stop offset="0.289062" stop-color="rgb(85.705566%, 72.773743%, 68.009949%)" stop-opacity="1"/>
<stop offset="0.292969" stop-color="rgb(85.534668%, 72.44873%, 67.628479%)" stop-opacity="1"/>
<stop offset="0.296875" stop-color="rgb(85.365295%, 72.125244%, 67.248535%)" stop-opacity="1"/>
<stop offset="0.300781" stop-color="rgb(85.195923%, 71.803284%, 66.870117%)" stop-opacity="1"/>
<stop offset="0.304688" stop-color="rgb(85.028076%, 71.481323%, 66.491699%)" stop-opacity="1"/>
<stop offset="0.308594" stop-color="rgb(84.860229%, 71.162415%, 66.116333%)" stop-opacity="1"/>
<stop offset="0.3125" stop-color="rgb(84.692383%, 70.843506%, 65.740967%)" stop-opacity="1"/>
<stop offset="0.316406" stop-color="rgb(84.526062%, 70.526123%, 65.368652%)" stop-opacity="1"/>
<stop offset="0.320312" stop-color="rgb(84.359741%, 70.20874%, 64.996338%)" stop-opacity="1"/>
<stop offset="0.324219" stop-color="rgb(84.19342%, 69.894409%, 64.625549%)" stop-opacity="1"/>
<stop offset="0.328125" stop-color="rgb(84.028625%, 69.580078%, 64.256287%)" stop-opacity="1"/>
<stop offset="0.332031" stop-color="rgb(83.863831%, 69.267273%, 63.88855%)" stop-opacity="1"/>
<stop offset="0.335938" stop-color="rgb(83.700562%, 68.954468%, 63.522339%)" stop-opacity="1"/>
<stop offset="0.339844" stop-color="rgb(83.537292%, 68.644714%, 63.157654%)" stop-opacity="1"/>
<stop offset="0.34375" stop-color="rgb(83.375549%, 68.334961%, 62.794495%)" stop-opacity="1"/>
<stop offset="0.347656" stop-color="rgb(83.213806%, 68.028259%, 62.432861%)" stop-opacity="1"/>
<stop offset="0.351562" stop-color="rgb(83.053589%, 67.721558%, 62.072754%)" stop-opacity="1"/>
<stop offset="0.355469" stop-color="rgb(82.893372%, 67.416382%, 61.714172%)" stop-opacity="1"/>
<stop offset="0.359375" stop-color="rgb(82.733154%, 67.111206%, 61.355591%)" stop-opacity="1"/>
<stop offset="0.363281" stop-color="rgb(82.574463%, 66.809082%, 61.000061%)" stop-opacity="1"/>
<stop offset="0.367188" stop-color="rgb(82.415771%, 66.506958%, 60.646057%)" stop-opacity="1"/>
<stop offset="0.371094" stop-color="rgb(82.258606%, 66.20636%, 60.293579%)" stop-opacity="1"/>
<stop offset="0.375" stop-color="rgb(82.10144%, 65.907288%, 59.941101%)" stop-opacity="1"/>
<stop offset="0.378906" stop-color="rgb(81.944275%, 65.609741%, 59.591675%)" stop-opacity="1"/>
<stop offset="0.382812" stop-color="rgb(81.788635%, 65.312195%, 59.242249%)" stop-opacity="1"/>
<stop offset="0.386719" stop-color="rgb(81.632996%, 65.016174%, 58.894348%)" stop-opacity="1"/>
<stop offset="0.390625" stop-color="rgb(81.478882%, 64.72168%, 58.547974%)" stop-opacity="1"/>
<stop offset="0.394531" stop-color="rgb(81.324768%, 64.428711%, 58.204651%)" stop-opacity="1"/>
<stop offset="0.398438" stop-color="rgb(81.17218%, 64.137268%, 57.861328%)" stop-opacity="1"/>
<stop offset="0.402344" stop-color="rgb(81.019592%, 63.847351%, 57.521057%)" stop-opacity="1"/>
<stop offset="0.40625" stop-color="rgb(80.867004%, 63.557434%, 57.180786%)" stop-opacity="1"/>
<stop offset="0.410156" stop-color="rgb(80.715942%, 63.270569%, 56.842041%)" stop-opacity="1"/>
<stop offset="0.414062" stop-color="rgb(80.566406%, 62.983704%, 56.504822%)" stop-opacity="1"/>
<stop offset="0.417969" stop-color="rgb(80.41687%, 62.698364%, 56.170654%)" stop-opacity="1"/>
<stop offset="0.421875" stop-color="rgb(80.267334%, 62.413025%, 55.836487%)" stop-opacity="1"/>
<stop offset="0.425781" stop-color="rgb(80.117798%, 62.130737%, 55.503845%)" stop-opacity="1"/>
<stop offset="0.429688" stop-color="rgb(79.969788%, 61.84845%, 55.172729%)" stop-opacity="1"/>
<stop offset="0.433594" stop-color="rgb(79.823303%, 61.569214%, 54.84314%)" stop-opacity="1"/>
<stop offset="0.4375" stop-color="rgb(79.676819%, 61.289978%, 54.515076%)" stop-opacity="1"/>
<stop offset="0.441406" stop-color="rgb(79.530334%, 61.012268%, 54.190063%)" stop-opacity="1"/>
<stop offset="0.445312" stop-color="rgb(79.385376%, 60.736084%, 53.865051%)" stop-opacity="1"/>
<stop offset="0.449219" stop-color="rgb(79.240417%, 60.461426%, 53.541565%)" stop-opacity="1"/>
<stop offset="0.453125" stop-color="rgb(79.096985%, 60.186768%, 53.219604%)" stop-opacity="1"/>
<stop offset="0.457031" stop-color="rgb(78.953552%, 59.915161%, 52.89917%)" stop-opacity="1"/>
<stop offset="0.460938" stop-color="rgb(78.811646%, 59.643555%, 52.580261%)" stop-opacity="1"/>
<stop offset="0.464844" stop-color="rgb(78.669739%, 59.373474%, 52.262878%)" stop-opacity="1"/>
<stop offset="0.46875" stop-color="rgb(78.529358%, 59.104919%, 51.947021%)" stop-opacity="1"/>
<stop offset="0.472656" stop-color="rgb(78.388977%, 58.837891%, 51.634216%)" stop-opacity="1"/>
<stop offset="0.476562" stop-color="rgb(78.250122%, 58.570862%, 51.321411%)" stop-opacity="1"/>
<stop offset="0.480469" stop-color="rgb(78.111267%, 58.306885%, 51.010132%)" stop-opacity="1"/>
<stop offset="0.484375" stop-color="rgb(77.972412%, 58.042908%, 50.700378%)" stop-opacity="1"/>
<stop offset="0.488281" stop-color="rgb(77.835083%, 57.781982%, 50.393677%)" stop-opacity="1"/>
<stop offset="0.492188" stop-color="rgb(77.697754%, 57.521057%, 50.086975%)" stop-opacity="1"/>
<stop offset="0.496094" stop-color="rgb(77.561951%, 57.261658%, 49.781799%)" stop-opacity="1"/>
<stop offset="0.5" stop-color="rgb(77.426147%, 57.003784%, 49.478149%)" stop-opacity="1"/>
<stop offset="0.503906" stop-color="rgb(77.29187%, 56.747437%, 49.177551%)" stop-opacity="1"/>
<stop offset="0.507812" stop-color="rgb(77.157593%, 56.491089%, 48.876953%)" stop-opacity="1"/>
<stop offset="0.511719" stop-color="rgb(77.024841%, 56.237793%, 48.579407%)" stop-opacity="1"/>
<stop offset="0.515625" stop-color="rgb(76.89209%, 55.984497%, 48.28186%)" stop-opacity="1"/>
<stop offset="0.519531" stop-color="rgb(76.759338%, 55.734253%, 47.987366%)" stop-opacity="1"/>
<stop offset="0.523438" stop-color="rgb(76.628113%, 55.484009%, 47.692871%)" stop-opacity="1"/>
<stop offset="0.527344" stop-color="rgb(76.498413%, 55.235291%, 47.401428%)" stop-opacity="1"/>
<stop offset="0.53125" stop-color="rgb(76.368713%, 54.988098%, 47.111511%)" stop-opacity="1"/>
<stop offset="0.535156" stop-color="rgb(76.239014%, 54.742432%, 46.82312%)" stop-opacity="1"/>
<stop offset="0.539062" stop-color="rgb(76.11084%, 54.498291%, 46.534729%)" stop-opacity="1"/>
<stop offset="0.542969" stop-color="rgb(75.982666%, 54.255676%, 46.24939%)" stop-opacity="1"/>
<stop offset="0.546875" stop-color="rgb(75.856018%, 54.013062%, 45.965576%)" stop-opacity="1"/>
<stop offset="0.550781" stop-color="rgb(75.72937%, 53.773499%, 45.683289%)" stop-opacity="1"/>
<stop offset="0.554688" stop-color="rgb(75.604248%, 53.533936%, 45.402527%)" stop-opacity="1"/>
<stop offset="0.558594" stop-color="rgb(75.480652%, 53.297424%, 45.123291%)" stop-opacity="1"/>
<stop offset="0.5625" stop-color="rgb(75.357056%, 53.060913%, 44.845581%)" stop-opacity="1"/>
<stop offset="0.566406" stop-color="rgb(75.233459%, 52.825928%, 44.570923%)" stop-opacity="1"/>
<stop offset="0.570312" stop-color="rgb(75.111389%, 52.592468%, 44.296265%)" stop-opacity="1"/>
<stop offset="0.574219" stop-color="rgb(74.989319%, 52.360535%, 44.024658%)" stop-opacity="1"/>
<stop offset="0.578125" stop-color="rgb(74.868774%, 52.130127%, 43.753052%)" stop-opacity="1"/>
<stop offset="0.582031" stop-color="rgb(74.74823%, 51.901245%, 43.484497%)" stop-opacity="1"/>
<stop offset="0.585938" stop-color="rgb(74.627686%, 51.673889%, 43.217468%)" stop-opacity="1"/>
<stop offset="0.589844" stop-color="rgb(74.508667%, 51.448059%, 42.951965%)" stop-opacity="1"/>
<stop offset="0.59375" stop-color="rgb(74.391174%, 51.222229%, 42.686462%)" stop-opacity="1"/>
<stop offset="0.597656" stop-color="rgb(74.273682%, 50.999451%, 42.425537%)" stop-opacity="1"/>
<stop offset="0.601562" stop-color="rgb(74.157715%, 50.778198%, 42.164612%)" stop-opacity="1"/>
<stop offset="0.605469" stop-color="rgb(74.041748%, 50.558472%, 41.905212%)" stop-opacity="1"/>
<stop offset="0.609375" stop-color="rgb(73.927307%, 50.338745%, 41.647339%)" stop-opacity="1"/>
<stop offset="0.613281" stop-color="rgb(73.812866%, 50.12207%, 41.392517%)" stop-opacity="1"/>
<stop offset="0.617188" stop-color="rgb(73.699951%, 49.905396%, 41.137695%)" stop-opacity="1"/>
<stop offset="0.621094" stop-color="rgb(73.587036%, 49.690247%, 40.885925%)" stop-opacity="1"/>
<stop offset="0.625" stop-color="rgb(73.475647%, 49.476624%, 40.635681%)" stop-opacity="1"/>
<stop offset="0.628906" stop-color="rgb(73.364258%, 49.266052%, 40.386963%)" stop-opacity="1"/>
<stop offset="0.632812" stop-color="rgb(73.254395%, 49.055481%, 40.139771%)" stop-opacity="1"/>
<stop offset="0.636719" stop-color="rgb(73.144531%, 48.847961%, 39.89563%)" stop-opacity="1"/>
<stop offset="0.640625" stop-color="rgb(73.036194%, 48.640442%, 39.651489%)" stop-opacity="1"/>
<stop offset="0.644531" stop-color="rgb(72.927856%, 48.434448%, 39.4104%)" stop-opacity="1"/>
<stop offset="0.648438" stop-color="rgb(72.821045%, 48.22998%, 39.170837%)" stop-opacity="1"/>
<stop offset="0.652344" stop-color="rgb(72.714233%, 48.027039%, 38.9328%)" stop-opacity="1"/>
<stop offset="0.65625" stop-color="rgb(72.608948%, 47.825623%, 38.696289%)" stop-opacity="1"/>
<stop offset="0.660156" stop-color="rgb(72.503662%, 47.627258%, 38.46283%)" stop-opacity="1"/>
<stop offset="0.664062" stop-color="rgb(72.399902%, 47.428894%, 38.22937%)" stop-opacity="1"/>
<stop offset="0.667969" stop-color="rgb(72.296143%, 47.232056%, 37.998962%)" stop-opacity="1"/>
<stop offset="0.671875" stop-color="rgb(72.193909%, 47.036743%, 37.768555%)" stop-opacity="1"/>
<stop offset="0.675781" stop-color="rgb(72.093201%, 46.844482%, 37.541199%)" stop-opacity="1"/>
<stop offset="0.679688" stop-color="rgb(71.992493%, 46.652222%, 37.315369%)" stop-opacity="1"/>
<stop offset="0.683594" stop-color="rgb(71.891785%, 46.461487%, 37.09259%)" stop-opacity="1"/>
<stop offset="0.6875" stop-color="rgb(71.792603%, 46.272278%, 36.869812%)" stop-opacity="1"/>
<stop offset="0.691406" stop-color="rgb(71.694946%, 46.086121%, 36.650085%)" stop-opacity="1"/>
<stop offset="0.695312" stop-color="rgb(71.59729%, 45.899963%, 36.431885%)" stop-opacity="1"/>
<stop offset="0.699219" stop-color="rgb(71.50116%, 45.716858%, 36.216736%)" stop-opacity="1"/>
<stop offset="0.703125" stop-color="rgb(71.405029%, 45.533752%, 36.001587%)" stop-opacity="1"/>
<stop offset="0.707031" stop-color="rgb(71.310425%, 45.353699%, 35.78949%)" stop-opacity="1"/>
<stop offset="0.710938" stop-color="rgb(71.21582%, 45.173645%, 35.578918%)" stop-opacity="1"/>
<stop offset="0.714844" stop-color="rgb(71.122742%, 44.996643%, 35.369873%)" stop-opacity="1"/>
<stop offset="0.71875" stop-color="rgb(71.029663%, 44.819641%, 35.162354%)" stop-opacity="1"/>
<stop offset="0.722656" stop-color="rgb(70.93811%, 44.645691%, 34.957886%)" stop-opacity="1"/>
<stop offset="0.726562" stop-color="rgb(70.848083%, 44.471741%, 34.754944%)" stop-opacity="1"/>
<stop offset="0.730469" stop-color="rgb(70.758057%, 44.300842%, 34.555054%)" stop-opacity="1"/>
<stop offset="0.734375" stop-color="rgb(70.66803%, 44.13147%, 34.355164%)" stop-opacity="1"/>
<stop offset="0.738281" stop-color="rgb(70.579529%, 43.963623%, 34.158325%)" stop-opacity="1"/>
<stop offset="0.742188" stop-color="rgb(70.492554%, 43.797302%, 33.961487%)" stop-opacity="1"/>
<stop offset="0.75" stop-color="rgb(70.407104%, 43.634033%, 33.769226%)" stop-opacity="1"/>
<stop offset="0.757812" stop-color="rgb(70.237732%, 43.310547%, 33.389282%)" stop-opacity="1"/>
<stop offset="0.765625" stop-color="rgb(70.071411%, 42.993164%, 33.016968%)" stop-opacity="1"/>
<stop offset="0.773438" stop-color="rgb(69.908142%, 42.681885%, 32.652283%)" stop-opacity="1"/>
<stop offset="0.78125" stop-color="rgb(69.747925%, 42.378235%, 32.295227%)" stop-opacity="1"/>
<stop offset="0.789062" stop-color="rgb(69.592285%, 42.082214%, 31.947327%)" stop-opacity="1"/>
<stop offset="0.796875" stop-color="rgb(69.441223%, 41.792297%, 31.607056%)" stop-opacity="1"/>
<stop offset="0.804688" stop-color="rgb(69.293213%, 41.511536%, 31.27594%)" stop-opacity="1"/>
<stop offset="0.8125" stop-color="rgb(69.148254%, 41.236877%, 30.952454%)" stop-opacity="1"/>
<stop offset="0.820312" stop-color="rgb(69.007874%, 40.968323%, 30.638123%)" stop-opacity="1"/>
<stop offset="0.828125" stop-color="rgb(68.87207%, 40.708923%, 30.332947%)" stop-opacity="1"/>
<stop offset="0.835938" stop-color="rgb(68.739319%, 40.457153%, 30.036926%)" stop-opacity="1"/>
<stop offset="0.84375" stop-color="rgb(68.611145%, 40.213013%, 29.750061%)" stop-opacity="1"/>
<stop offset="0.851562" stop-color="rgb(68.487549%, 39.976501%, 29.472351%)" stop-opacity="1"/>
<stop offset="0.859375" stop-color="rgb(68.367004%, 39.74762%, 29.202271%)" stop-opacity="1"/>
<stop offset="0.867188" stop-color="rgb(68.251038%, 39.526367%, 28.944397%)" stop-opacity="1"/>
<stop offset="0.875" stop-color="rgb(68.139648%, 39.31427%, 28.694153%)" stop-opacity="1"/>
<stop offset="0.882812" stop-color="rgb(68.032837%, 39.109802%, 28.45459%)" stop-opacity="1"/>
<stop offset="0.890625" stop-color="rgb(67.930603%, 38.91449%, 28.225708%)" stop-opacity="1"/>
<stop offset="0.898438" stop-color="rgb(67.831421%, 38.728333%, 28.005981%)" stop-opacity="1"/>
<stop offset="0.90625" stop-color="rgb(67.738342%, 38.551331%, 27.796936%)" stop-opacity="1"/>
<stop offset="0.921875" stop-color="rgb(67.610168%, 38.305664%, 27.510071%)" stop-opacity="1"/>
<stop offset="0.9375" stop-color="rgb(67.454529%, 38.008118%, 27.160645%)" stop-opacity="1"/>
<stop offset="0.953125" stop-color="rgb(67.318726%, 37.75177%, 26.858521%)" stop-opacity="1"/>
<stop offset="0.96875" stop-color="rgb(67.208862%, 37.541199%, 26.611328%)" stop-opacity="1"/>
<stop offset="1" stop-color="rgb(67.108154%, 37.350464%, 26.387024%)" stop-opacity="1"/>
</linearGradient>
</defs>

<path fill-rule="nonzero" fill="rgb(98.826599%, 59.568787%, 29.80957%)" fill-opacity="1" d="M 474.46875 292.878906 L 124.46875 292.878906 C 110.664062 292.878906 99.46875 281.691406 99.46875 267.878906 C 99.46875 254.070312 110.664062 242.878906 124.46875 242.878906 L 474.46875 242.878906 C 488.277344 242.878906 499.46875 254.070312 499.46875 267.878906 C 499.46875 281.691406 488.277344 292.878906 474.46875 292.878906 "/>
<path fill-rule="nonzero" fill="rgb(98.826599%, 59.568787%, 29.80957%)" fill-opacity="1" d="M 1125.671875 154.421875 L 775.667969 154.421875 C 761.859375 154.421875 750.667969 143.230469 750.667969 129.421875 C 750.667969 115.609375 761.859375 104.421875 775.667969 104.421875 L 1125.671875 104.421875 C 1139.480469 104.421875 1150.671875 115.609375 1150.671875 129.421875 C 1150.671875 143.230469 1139.480469 154.421875 1125.671875 154.421875 "/>
<path fill-rule="nonzero" fill="rgb(98.826599%, 59.568787%, 29.80957%)" fill-opacity="1" d="M 1760.621094 341.261719 L 1410.621094 341.261719 C 1396.820312 341.261719 1385.621094 330.058594 1385.621094 316.261719 C 1385.621094 302.449219 1396.820312 291.261719 1410.621094 291.261719 L 1760.621094 291.261719 C 1774.429688 291.261719 1785.621094 302.449219 1785.621094 316.261719 C 1785.621094 330.058594 1774.429688 341.261719 1760.621094 341.261719 "/>
<path fill-rule="nonzero" fill="rgb(98.826599%, 59.568787%, 29.80957%)" fill-opacity="1" d="M 2323.21875 129.421875 L 1973.21875 129.421875 C 1959.410156 129.421875 1948.21875 118.230469 1948.21875 104.421875 C 1948.21875 90.609375 1959.410156 79.421875 1973.21875 79.421875 L 2323.21875 79.421875 C 2337.03125 79.421875 2348.21875 90.609375 2348.21875 104.421875 C 2348.21875 118.230469 2337.03125 129.421875 2323.21875 129.421875 "/>
<path fill-rule="nonzero" fill="rgb(51.367188%, 28.637695%, 27.050781%)" fill-opacity="1" d="M 277.539062 446.148438 L 277.539062 410.851562 L 254.335938 410.851562 L 254.335938 383.230469 L 217.871094 383.230469 L 217.871094 410.851562 L 191.355469 410.851562 L 191.355469 347.871094 L 153.789062 347.871094 L 153.789062 410.851562 L 105.171875 410.851562 L 105.171875 446.148438 L 81.96875 446.148438 L 81.96875 313.621094 L 46.609375 313.621094 L 46.609375 446.148438 L -36 446.148438 L -36 1230.761719 L 356.632812 1230.761719 L 356.632812 446.148438 L 277.539062 446.148438 "/>
<path fill-rule="nonzero" fill="rgb(51.367188%, 28.637695%, 27.050781%)" fill-opacity="1" d="M 797.949219 703.140625 L 797.949219 594.269531 L 758.175781 594.269531 L 758.175781 703.140625 L 729.445312 703.140625 L 729.445312 674.925781 L 700.71875 674.925781 L 700.71875 656.140625 L 655.417969 656.140625 L 655.417969 674.925781 L 628.898438 674.925781 L 628.898438 703.140625 L 356.632812 703.140625 L 356.632812 1206.628906 L 860.125 1206.628906 L 860.125 703.140625 L 797.949219 703.140625 "/>
<path fill-rule="nonzero" fill="rgb(51.367188%, 28.637695%, 27.050781%)" fill-opacity="1" d="M 1174.011719 369.96875 L 1174.011719 341.261719 L 1128.988281 341.261719 L 1128.988281 316.269531 L 1089.648438 316.269531 L 1089.648438 341.261719 L 1059.820312 341.261719 L 1059.820312 242.878906 L 1018.929688 242.878906 L 1018.929688 341.261719 L 997.941406 341.261719 L 997.941406 304.78125 L 972.527344 304.78125 L 972.527344 267.878906 L 950.667969 267.878906 L 950.667969 304.78125 L 902.917969 304.78125 L 902.917969 341.261719 L 839.9375 341.261719 L 839.9375 369.96875 L 860.125 369.96875 L 860.125 396.488281 L 839.9375 396.488281 L 839.9375 425.210938 L 860.125 425.210938 L 860.125 451.730469 L 839.9375 451.730469 L 839.9375 480.449219 L 860.125 480.449219 L 860.125 506.96875 L 839.9375 506.96875 L 839.9375 535.691406 L 860.125 535.691406 L 860.125 562.210938 L 839.9375 562.210938 L 839.9375 590.921875 L 860.125 590.921875 L 860.125 617.449219 L 839.9375 617.449219 L 839.9375 646.164062 L 860.125 646.164062 L 860.125 672.6875 L 839.9375 672.6875 L 839.9375 701.402344 L 860.125 701.402344 L 860.125 1406.980469 L 1153.828125 1406.980469 L 1153.828125 480.449219 L 1174.011719 480.449219 L 1174.011719 451.730469 L 1153.828125 451.730469 L 1153.828125 425.210938 L 1174.011719 425.210938 L 1174.011719 396.488281 L 1153.828125 396.488281 L 1153.828125 369.96875 L 1174.011719 369.96875 "/>
<path fill-rule="nonzero" fill="rgb(51.367188%, 28.637695%, 27.050781%)" fill-opacity="1" d="M 1494.050781 475.519531 L 1494.050781 425.210938 L 1455.371094 425.210938 L 1455.371094 316.261719 L 1431.070312 316.261719 L 1431.070312 425.210938 L 1395.710938 425.210938 L 1395.710938 475.519531 L 1346.828125 475.519531 L 1346.828125 451.730469 L 1285.640625 451.730469 L 1285.640625 374.390625 L 1263.121094 374.390625 L 1263.121094 451.730469 L 1224.449219 451.730469 L 1224.449219 475.519531 L 1153.828125 475.519531 L 1153.828125 1367.820312 L 1539.839844 1367.820312 L 1539.839844 475.519531 L 1494.050781 475.519531 "/>
<path fill-rule="nonzero" fill="rgb(51.367188%, 28.637695%, 27.050781%)" fill-opacity="1" d="M 1808.699219 399.988281 L 1808.699219 380.570312 L 1759.21875 380.570312 L 1759.21875 268.320312 L 1739.339844 268.320312 L 1739.339844 380.570312 L 1689.621094 380.570312 L 1689.621094 399.988281 L 1649.839844 399.988281 L 1649.839844 335.941406 L 1585.621094 335.941406 L 1585.621094 399.988281 L 1539.839844 399.988281 L 1539.839844 1367.820312 L 1850.320312 1367.820312 L 1850.320312 399.988281 L 1808.699219 399.988281 "/>
<path fill-rule="nonzero" fill="rgb(51.367188%, 28.637695%, 27.050781%)" fill-opacity="1" d="M 1999.269531 713.628906 L 1999.269531 658.351562 L 1931.589844 658.351562 L 1931.589844 608.628906 L 1915.019531 608.628906 L 1915.019531 658.351562 L 1899.550781 658.351562 L 1899.550781 713.628906 L 1850.320312 713.628906 L 1850.320312 1406.980469 L 2148.21875 1406.980469 L 2148.21875 713.628906 L 1999.269531 713.628906 "/>
<path fill-rule="nonzero" fill="rgb(51.367188%, 28.637695%, 27.050781%)" fill-opacity="1" d="M 2534.871094 374.820312 L 2534.871094 357.808594 L 2448.550781 357.808594 L 2448.550781 223.019531 L 2410.019531 223.019531 L 2410.019531 357.808594 L 2368.03125 357.808594 L 2368.03125 374.820312 L 2333.78125 374.820312 L 2333.78125 335.941406 L 2277.429688 335.941406 L 2277.429688 291.261719 L 2237.648438 291.261719 L 2237.648438 335.941406 L 2200.078125 335.941406 L 2200.078125 374.820312 L 2148.21875 374.820312 L 2148.21875 1276.910156 L 2609.75 1276.910156 L 2609.75 374.820312 L 2534.871094 374.820312 "/>
<path fill-rule="nonzero" fill="rgb(35.301208%, 24.31488%, 28.637695%)" fill-opacity="1" d="M 146.730469 713.628906 L 146.730469 587.710938 L 115.644531 587.710938 L 115.644531 713.628906 L 92.636719 713.628906 L 92.636719 655.890625 L 17.375 655.890625 L 17.375 713.628906 L -60.507812 713.628906 L -60.507812 1504.53125 L 245.78125 1504.53125 L 245.78125 713.628906 L 146.730469 713.628906 "/>
<path fill-rule="nonzero" fill="rgb(35.301208%, 24.31488%, 28.637695%)" fill-opacity="1" d="M 517.894531 612.929688 L 517.894531 563.640625 L 468.605469 563.640625 L 468.605469 612.929688 L 402.425781 612.929688 L 402.425781 587.710938 L 363.316406 587.710938 L 363.316406 539.570312 L 342.261719 539.570312 L 342.261719 587.710938 L 313.183594 587.710938 L 313.183594 508.488281 L 293.128906 508.488281 L 293.128906 587.710938 L 259.035156 587.710938 L 259.035156 612.929688 L 245.78125 612.929688 L 245.78125 1479.351562 L 602.421875 1479.351562 L 602.421875 612.929688 L 517.894531 612.929688 "/>
<path fill-rule="nonzero" fill="rgb(35.301208%, 24.31488%, 28.637695%)" fill-opacity="1" d="M 875.710938 940.199219 L 875.710938 721.066406 L 851.71875 721.066406 L 851.71875 940.199219 L 807.527344 940.199219 L 807.527344 812.316406 L 776.542969 812.316406 L 776.542969 881.503906 L 724.300781 881.503906 L 724.300781 846.410156 L 689.203125 846.410156 L 689.203125 881.503906 L 658.121094 881.503906 L 658.121094 940.199219 L 602.421875 940.199219 L 602.421875 1678.648438 L 950.667969 1678.648438 L 950.667969 940.199219 L 875.710938 940.199219 "/>
<path fill-rule="nonzero" fill="rgb(35.301208%, 24.31488%, 28.637695%)" fill-opacity="1" d="M 1267.78125 789.152344 L 1267.78125 770.199219 L 1170.511719 770.199219 L 1170.511719 789.152344 L 1139.429688 789.152344 L 1139.429688 741.121094 L 1114.359375 741.121094 L 1114.359375 703.140625 L 1090.300781 703.140625 L 1090.300781 741.121094 L 1070.738281 741.121094 L 1070.738281 663.277344 L 1041.160156 663.277344 L 1041.160156 741.121094 L 1002.058594 741.121094 L 1002.058594 789.152344 L 950.667969 789.152344 L 950.667969 1678.648438 L 1307.308594 1678.648438 L 1307.308594 789.152344 L 1267.78125 789.152344 "/>
<path fill-rule="nonzero" fill="rgb(35.301208%, 24.31488%, 28.637695%)" fill-opacity="1" d="M 1598.679688 663.277344 L 1598.679688 616.785156 L 1543.03125 616.785156 L 1543.03125 563.640625 L 1519.460938 563.640625 L 1519.460938 616.785156 L 1487.378906 616.785156 L 1487.378906 663.277344 L 1442.25 663.277344 L 1442.25 641.851562 L 1341.980469 641.851562 L 1341.980469 663.277344 L 1307.308594 663.277344 L 1307.308594 1504.53125 L 1638.769531 1504.53125 L 1638.769531 663.277344 L 1598.679688 663.277344 "/>
<path fill-rule="nonzero" fill="rgb(35.301208%, 24.31488%, 28.637695%)" fill-opacity="1" d="M 1950.640625 906.632812 L 1950.640625 877.492188 L 1930.578125 877.492188 L 1930.578125 825.863281 L 1904.511719 825.863281 L 1904.511719 877.492188 L 1877.441406 877.492188 L 1877.441406 906.632812 L 1850.320312 906.632812 L 1850.320312 810.3125 L 1832.320312 810.3125 L 1832.320312 906.632812 L 1638.769531 906.632812 L 1638.769531 1582.148438 L 1978.628906 1582.148438 L 1978.628906 906.632812 L 1950.640625 906.632812 "/>
<path fill-rule="nonzero" fill="rgb(35.301208%, 24.31488%, 28.637695%)" fill-opacity="1" d="M 2219.371094 566.78125 L 2219.371094 505.480469 L 2190.289062 505.480469 L 2190.289062 566.78125 L 2139.148438 566.78125 L 2139.148438 535.558594 L 2070.960938 535.558594 L 2070.960938 484.421875 L 2040.878906 484.421875 L 2040.878906 535.558594 L 2010.800781 535.558594 L 2010.800781 566.78125 L 1978.628906 566.78125 L 1978.628906 1328.308594 L 2272.328125 1328.308594 L 2272.328125 566.78125 L 2219.371094 566.78125 "/>
<path fill-rule="nonzero" fill="rgb(35.301208%, 24.31488%, 28.637695%)" fill-opacity="1" d="M 2481.078125 713.628906 L 2481.078125 578.679688 L 2468.050781 578.679688 L 2468.050781 713.628906 L 2433.949219 713.628906 L 2433.949219 687.976562 L 2382.308594 687.976562 L 2382.308594 636.839844 L 2357.75 636.839844 L 2357.75 687.976562 L 2330.671875 687.976562 L 2330.671875 713.628906 L 2272.328125 713.628906 L 2272.328125 1270.269531 L 2624.78125 1270.269531 L 2624.78125 713.628906 L 2481.078125 713.628906 "/>
<path fill-rule="nonzero" fill="rgb(19.604492%, 19.993591%, 30.200195%)" fill-opacity="1" d="M 306.285156 1218.171875 L 306.285156 1190.550781 L 272.589844 1190.550781 L 272.589844 1156.859375 L 229.828125 1156.859375 L 229.828125 1190.550781 L 205.207031 1190.550781 L 205.207031 1084.289062 L 174.105469 1084.289062 L 174.105469 1190.550781 L 120.972656 1190.550781 L 120.972656 1218.171875 L 83.394531 1218.171875 L 83.394531 1121.871094 L 28.964844 1121.871094 L 28.964844 1218.171875 L -77.292969 1218.171875 L -77.292969 1818.160156 L 409.414062 1818.160156 L 409.414062 1218.171875 L 306.285156 1218.171875 "/>
<path fill-rule="nonzero" fill="rgb(19.604492%, 19.993591%, 30.200195%)" fill-opacity="1" d="M 851.71875 1068.871094 L 851.71875 1046.140625 L 828.992188 1046.140625 L 828.992188 1027.269531 L 776.542969 1027.269531 L 776.542969 1007.828125 L 726.148438 1007.828125 L 726.148438 914.527344 L 709.304688 914.527344 L 709.304688 1007.828125 L 686.625 1007.828125 L 686.625 963.121094 L 641.917969 963.121094 L 641.917969 1007.828125 L 619.203125 1007.828125 L 619.203125 1027.269531 L 566.109375 1027.269531 L 566.109375 932.019531 L 525.289062 932.019531 L 525.289062 874.117188 L 507.144531 874.117188 L 507.144531 932.019531 L 470.859375 932.019531 L 470.859375 1027.269531 L 409.414062 1027.269531 L 409.414062 1046.140625 L 386.691406 1046.140625 L 386.691406 1068.871094 L 409.414062 1068.871094 L 409.414062 1097.71875 L 386.691406 1097.71875 L 386.691406 1120.441406 L 409.414062 1120.441406 L 409.414062 1149.289062 L 386.691406 1149.289062 L 386.691406 1172.011719 L 409.414062 1172.011719 L 409.414062 1200.859375 L 386.691406 1200.859375 L 386.691406 1223.589844 L 409.414062 1223.589844 L 409.414062 1818.160156 L 828.992188 1818.160156 L 828.992188 1429.878906 L 851.71875 1429.878906 L 851.71875 1407.160156 L 828.992188 1407.160156 L 828.992188 1378.308594 L 851.71875 1378.308594 L 851.71875 1355.578125 L 828.992188 1355.578125 L 828.992188 1326.730469 L 851.71875 1326.730469 L 851.71875 1304.011719 L 828.992188 1304.011719 L 828.992188 1275.160156 L 851.71875 1275.160156 L 851.71875 1252.441406 L 828.992188 1252.441406 L 828.992188 1223.589844 L 851.71875 1223.589844 L 851.71875 1200.859375 L 828.992188 1200.859375 L 828.992188 1172.011719 L 851.71875 1172.011719 L 851.71875 1149.289062 L 828.992188 1149.289062 L 828.992188 1120.441406 L 851.71875 1120.441406 L 851.71875 1097.71875 L 828.992188 1097.71875 L 828.992188 1068.871094 L 851.71875 1068.871094 "/>
<path fill-rule="nonzero" fill="rgb(19.604492%, 19.993591%, 30.200195%)" fill-opacity="1" d="M 1026.789062 1461.519531 L 1026.789062 1429.878906 L 1006.980469 1429.878906 L 1006.980469 1347.351562 L 987.917969 1347.351562 L 987.917969 1429.878906 L 950.667969 1429.878906 L 950.667969 1407.160156 L 916.644531 1407.160156 L 916.644531 1429.878906 L 895.910156 1429.878906 L 895.910156 1461.519531 L 828.992188 1461.519531 L 828.992188 1780.398438 L 1072.351562 1780.398438 L 1072.351562 1461.519531 L 1026.789062 1461.519531 "/>
<path fill-rule="nonzero" fill="rgb(19.604492%, 19.993591%, 30.200195%)" fill-opacity="1" d="M 1346.828125 1068.871094 L 1346.828125 914.527344 L 1326.140625 914.527344 L 1326.140625 1068.871094 L 1260.050781 1068.871094 L 1260.050781 1035.039062 L 1242.640625 1035.039062 L 1242.640625 999.082031 L 1219.878906 999.082031 L 1219.878906 1035.039062 L 1187.480469 1035.039062 L 1187.480469 963.121094 L 1153.828125 963.121094 L 1153.828125 1035.039062 L 1128.988281 1035.039062 L 1128.988281 1068.871094 L 1060.488281 1068.871094 L 1060.488281 1083.898438 L 1072.351562 1083.898438 L 1072.351562 1755.21875 L 1424.789062 1755.21875 L 1424.789062 1068.871094 L 1346.828125 1068.871094 "/>
<path fill-rule="nonzero" fill="rgb(19.604492%, 19.993591%, 30.200195%)" fill-opacity="1" d="M 1808.699219 848.941406 L 1808.699219 825.863281 L 1785.621094 825.863281 L 1785.621094 800 L 1685.101562 800 L 1685.101562 678.675781 L 1651.410156 678.675781 L 1651.410156 800 L 1620.308594 800 L 1620.308594 761.613281 L 1571.058594 761.613281 L 1571.058594 720.144531 L 1510.160156 720.144531 L 1510.160156 761.613281 L 1459.621094 761.613281 L 1459.621094 800 L 1424.789062 800 L 1424.789062 825.863281 L 1401.710938 825.863281 L 1401.710938 848.941406 L 1424.789062 848.941406 L 1424.789062 872.371094 L 1401.710938 872.371094 L 1401.710938 895.445312 L 1424.789062 895.445312 L 1424.789062 918.875 L 1401.710938 918.875 L 1401.710938 941.953125 L 1424.789062 941.953125 L 1424.789062 965.378906 L 1401.710938 965.378906 L 1401.710938 988.457031 L 1424.789062 988.457031 L 1424.789062 1011.890625 L 1401.710938 1011.890625 L 1401.710938 1034.960938 L 1424.789062 1034.960938 L 1424.789062 1058.390625 L 1401.710938 1058.390625 L 1401.710938 1081.46875 L 1424.789062 1081.46875 L 1424.789062 1818.160156 L 1785.621094 1818.160156 L 1785.621094 1220.980469 L 1808.699219 1220.980469 L 1808.699219 1197.910156 L 1785.621094 1197.910156 L 1785.621094 1174.480469 L 1808.699219 1174.480469 L 1808.699219 1151.398438 L 1785.621094 1151.398438 L 1785.621094 1127.96875 L 1808.699219 1127.96875 L 1808.699219 1104.898438 L 1785.621094 1104.898438 L 1785.621094 1081.46875 L 1808.699219 1081.46875 L 1808.699219 1058.390625 L 1785.621094 1058.390625 L 1785.621094 1034.960938 L 1808.699219 1034.960938 L 1808.699219 1011.890625 L 1785.621094 1011.890625 L 1785.621094 988.457031 L 1808.699219 988.457031 L 1808.699219 965.378906 L 1785.621094 965.378906 L 1785.621094 941.953125 L 1808.699219 941.953125 L 1808.699219 918.875 L 1785.621094 918.875 L 1785.621094 895.445312 L 1808.699219 895.445312 L 1808.699219 872.371094 L 1785.621094 872.371094 L 1785.621094 848.941406 L 1808.699219 848.941406 "/>
<path fill-rule="nonzero" fill="rgb(19.604492%, 19.993591%, 30.200195%)" fill-opacity="1" d="M 2082.929688 1218.171875 L 2082.929688 1182.769531 L 2024.46875 1182.769531 L 2024.46875 1144.050781 L 1985.738281 1144.050781 L 1985.738281 1182.769531 L 1946.871094 1182.769531 L 1946.871094 1218.171875 L 1927.429688 1218.171875 L 1927.429688 1069.929688 L 1895.03125 1069.929688 L 1895.03125 1218.171875 L 1785.621094 1218.171875 L 1785.621094 1868.511719 L 2133.871094 1868.511719 L 2133.871094 1218.171875 L 2082.929688 1218.171875 "/>
<path fill-rule="nonzero" fill="rgb(19.604492%, 19.993591%, 30.200195%)" fill-opacity="1" d="M 2471.699219 979.011719 L 2471.699219 947.539062 L 2353.769531 947.539062 L 2353.769531 979.011719 L 2331.738281 979.011719 L 2331.738281 848.941406 L 2286.390625 848.941406 L 2286.390625 979.011719 L 2257.878906 979.011719 L 2257.878906 930.414062 L 2184.011719 930.414062 L 2184.011719 979.011719 L 2133.871094 979.011719 L 2133.871094 1755.21875 L 2561.839844 1755.21875 L 2561.839844 979.011719 L 2471.699219 979.011719 "/>
<path fill-rule="nonzero" fill="rgb(14.892578%, 15.696716%, 22.75238%)" fill-opacity="1" d="M 58.082031 1354.148438 L 18.746094 1354.148438 L 18.746094 1261.308594 L 58.082031 1261.308594 L 58.082031 1354.148438 "/>
<path fill-rule="nonzero" fill="rgb(14.892578%, 15.696716%, 22.75238%)" fill-opacity="1" d="M 131.972656 1354.148438 L 92.636719 1354.148438 L 92.636719 1261.308594 L 131.972656 1261.308594 L 131.972656 1354.148438 "/>
<path fill-rule="nonzero" fill="rgb(14.892578%, 15.696716%, 22.75238%)" fill-opacity="1" d="M 205.863281 1354.148438 L 166.523438 1354.148438 L 166.523438 1261.308594 L 205.863281 1261.308594 L 205.863281 1354.148438 "/>
<path fill-rule="nonzero" fill="rgb(14.892578%, 15.696716%, 22.75238%)" fill-opacity="1" d="M 279.75 1354.148438 L 240.414062 1354.148438 L 240.414062 1261.308594 L 279.75 1261.308594 L 279.75 1354.148438 "/>
<path fill-rule="nonzero" fill="rgb(14.892578%, 15.696716%, 22.75238%)" fill-opacity="1" d="M 353.640625 1354.148438 L 314.304688 1354.148438 L 314.304688 1261.308594 L 353.640625 1261.308594 L 353.640625 1354.148438 "/>
<path fill-rule="nonzero" fill="rgb(14.892578%, 15.696716%, 22.75238%)" fill-opacity="1" d="M 58.082031 1479.351562 L 18.746094 1479.351562 L 18.746094 1386.519531 L 58.082031 1386.519531 L 58.082031 1479.351562 "/>
<path fill-rule="nonzero" fill="rgb(14.892578%, 15.696716%, 22.75238%)" fill-opacity="1" d="M 131.972656 1479.351562 L 92.636719 1479.351562 L 92.636719 1386.519531 L 131.972656 1386.519531 L 131.972656 1479.351562 "/>
<path fill-rule="nonzero" fill="rgb(14.892578%, 15.696716%, 22.75238%)" fill-opacity="1" d="M 205.863281 1479.351562 L 166.523438 1479.351562 L 166.523438 1386.519531 L 205.863281 1386.519531 L 205.863281 1479.351562 "/>
<path fill-rule="nonzero" fill="rgb(14.892578%, 15.696716%, 22.75238%)" fill-opacity="1" d="M 279.75 1479.351562 L 240.414062 1479.351562 L 240.414062 1386.519531 L 279.75 1386.519531 L 279.75 1479.351562 "/>
<path fill-rule="nonzero" fill="rgb(14.892578%, 15.696716%, 22.75238%)" fill-opacity="1" d="M 353.640625 1479.351562 L 314.304688 1479.351562 L 314.304688 1386.519531 L 353.640625 1386.519531 L 353.640625 1479.351562 "/>
<path fill-rule="nonzero" fill="rgb(14.892578%, 15.696716%, 22.75238%)" fill-opacity="1" d="M 58.082031 1604.558594 L 18.746094 1604.558594 L 18.746094 1511.730469 L 58.082031 1511.730469 L 58.082031 1604.558594 "/>
<path fill-rule="nonzero" fill="rgb(14.892578%, 15.696716%, 22.75238%)" fill-opacity="1" d="M 131.972656 1604.558594 L 92.636719 1604.558594 L 92.636719 1511.730469 L 131.972656 1511.730469 L 131.972656 1604.558594 "/>
<path fill-rule="nonzero" fill="rgb(14.892578%, 15.696716%, 22.75238%)" fill-opacity="1" d="M 205.863281 1604.558594 L 166.523438 1604.558594 L 166.523438 1511.730469 L 205.863281 1511.730469 L 205.863281 1604.558594 "/>
<path fill-rule="nonzero" fill="rgb(14.892578%, 15.696716%, 22.75238%)" fill-opacity="1" d="M 279.75 1604.558594 L 240.414062 1604.558594 L 240.414062 1511.730469 L 279.75 1511.730469 L 279.75 1604.558594 "/>
<path fill-rule="nonzero" fill="rgb(14.892578%, 15.696716%, 22.75238%)" fill-opacity="1" d="M 353.640625 1604.558594 L 314.304688 1604.558594 L 314.304688 1511.730469 L 353.640625 1511.730469 L 353.640625 1604.558594 "/>
<path fill-rule="nonzero" fill="rgb(14.892578%, 15.696716%, 22.75238%)" fill-opacity="1" d="M 602.421875 1103.96875 L 446.726562 1103.96875 L 446.726562 1072.5 L 602.421875 1072.5 L 602.421875 1103.96875 "/>
<path fill-rule="nonzero" fill="rgb(14.892578%, 15.696716%, 22.75238%)" fill-opacity="1" d="M 789.527344 1103.96875 L 633.832031 1103.96875 L 633.832031 1072.5 L 789.527344 1072.5 L 789.527344 1103.96875 "/>
<path fill-rule="nonzero" fill="rgb(14.892578%, 15.696716%, 22.75238%)" fill-opacity="1" d="M 602.421875 1170.96875 L 446.726562 1170.96875 L 446.726562 1139.5 L 602.421875 1139.5 L 602.421875 1170.96875 "/>
<path fill-rule="nonzero" fill="rgb(14.892578%, 15.696716%, 22.75238%)" fill-opacity="1" d="M 789.527344 1170.96875 L 633.832031 1170.96875 L 633.832031 1139.5 L 789.527344 1139.5 L 789.527344 1170.96875 "/>
<path fill-rule="nonzero" fill="rgb(14.892578%, 15.696716%, 22.75238%)" fill-opacity="1" d="M 602.421875 1237.960938 L 446.726562 1237.960938 L 446.726562 1206.488281 L 602.421875 1206.488281 L 602.421875 1237.960938 "/>
<path fill-rule="nonzero" fill="rgb(14.892578%, 15.696716%, 22.75238%)" fill-opacity="1" d="M 789.527344 1237.960938 L 633.832031 1237.960938 L 633.832031 1206.488281 L 789.527344 1206.488281 L 789.527344 1237.960938 "/>
<path fill-rule="nonzero" fill="rgb(14.892578%, 15.696716%, 22.75238%)" fill-opacity="1" d="M 602.421875 1304.960938 L 446.726562 1304.960938 L 446.726562 1273.488281 L 602.421875 1273.488281 L 602.421875 1304.960938 "/>
<path fill-rule="nonzero" fill="rgb(14.892578%, 15.696716%, 22.75238%)" fill-opacity="1" d="M 789.527344 1304.960938 L 633.832031 1304.960938 L 633.832031 1273.488281 L 789.527344 1273.488281 L 789.527344 1304.960938 "/>
<path fill-rule="nonzero" fill="rgb(14.892578%, 15.696716%, 22.75238%)" fill-opacity="1" d="M 602.421875 1371.960938 L 446.726562 1371.960938 L 446.726562 1340.488281 L 602.421875 1340.488281 L 602.421875 1371.960938 "/>
<path fill-rule="nonzero" fill="rgb(14.892578%, 15.696716%, 22.75238%)" fill-opacity="1" d="M 789.527344 1371.960938 L 633.832031 1371.960938 L 633.832031 1340.488281 L 789.527344 1340.488281 L 789.527344 1371.960938 "/>
<path fill-rule="nonzero" fill="rgb(14.892578%, 15.696716%, 22.75238%)" fill-opacity="1" d="M 602.421875 1438.960938 L 446.726562 1438.960938 L 446.726562 1407.488281 L 602.421875 1407.488281 L 602.421875 1438.960938 "/>
<path fill-rule="nonzero" fill="rgb(14.892578%, 15.696716%, 22.75238%)" fill-opacity="1" d="M 789.527344 1438.960938 L 633.832031 1438.960938 L 633.832031 1407.488281 L 789.527344 1407.488281 L 789.527344 1438.960938 "/>
<path fill-rule="nonzero" fill="rgb(14.892578%, 15.696716%, 22.75238%)" fill-opacity="1" d="M 602.421875 1505.949219 L 446.726562 1505.949219 L 446.726562 1474.480469 L 602.421875 1474.480469 L 602.421875 1505.949219 "/>
<path fill-rule="nonzero" fill="rgb(14.892578%, 15.696716%, 22.75238%)" fill-opacity="1" d="M 789.527344 1505.949219 L 633.832031 1505.949219 L 633.832031 1474.480469 L 789.527344 1474.480469 L 789.527344 1505.949219 "/>
<path fill-rule="nonzero" fill="rgb(14.892578%, 15.696716%, 22.75238%)" fill-opacity="1" d="M 602.421875 1572.949219 L 446.726562 1572.949219 L 446.726562 1541.480469 L 602.421875 1541.480469 L 602.421875 1572.949219 "/>
<path fill-rule="nonzero" fill="rgb(14.892578%, 15.696716%, 22.75238%)" fill-opacity="1" d="M 789.527344 1572.949219 L 633.832031 1572.949219 L 633.832031 1541.480469 L 789.527344 1541.480469 L 789.527344 1572.949219 "/>
<path fill-rule="nonzero" fill="rgb(14.892578%, 15.696716%, 22.75238%)" fill-opacity="1" d="M 1049.359375 1504.53125 L 851.71875 1504.53125 L 851.71875 1490.21875 L 1049.359375 1490.21875 L 1049.359375 1504.53125 "/>
<path fill-rule="nonzero" fill="rgb(14.892578%, 15.696716%, 22.75238%)" fill-opacity="1" d="M 1049.359375 1535.089844 L 851.71875 1535.089844 L 851.71875 1520.78125 L 1049.359375 1520.78125 L 1049.359375 1535.089844 "/>
<path fill-rule="nonzero" fill="rgb(14.892578%, 15.696716%, 22.75238%)" fill-opacity="1" d="M 1049.359375 1565.660156 L 851.71875 1565.660156 L 851.71875 1551.351562 L 1049.359375 1551.351562 L 1049.359375 1565.660156 "/>
<path fill-rule="nonzero" fill="rgb(14.892578%, 15.696716%, 22.75238%)" fill-opacity="1" d="M 1049.359375 1596.21875 L 851.71875 1596.21875 L 851.71875 1581.910156 L 1049.359375 1581.910156 L 1049.359375 1596.21875 "/>
<path fill-rule="nonzero" fill="rgb(14.892578%, 15.696716%, 22.75238%)" fill-opacity="1" d="M 1167.371094 1162.191406 L 1109.148438 1162.191406 L 1109.148438 1103.96875 L 1167.371094 1103.96875 L 1167.371094 1162.191406 "/>
<path fill-rule="nonzero" fill="rgb(14.892578%, 15.696716%, 22.75238%)" fill-opacity="1" d="M 1271.75 1162.191406 L 1213.53125 1162.191406 L 1213.53125 1103.96875 L 1271.75 1103.96875 L 1271.75 1162.191406 "/>
<path fill-rule="nonzero" fill="rgb(14.892578%, 15.696716%, 22.75238%)" fill-opacity="1" d="M 1376.128906 1162.191406 L 1317.910156 1162.191406 L 1317.910156 1103.96875 L 1376.128906 1103.96875 L 1376.128906 1162.191406 "/>
<path fill-rule="nonzero" fill="rgb(14.892578%, 15.696716%, 22.75238%)" fill-opacity="1" d="M 1167.371094 1251.339844 L 1109.148438 1251.339844 L 1109.148438 1193.121094 L 1167.371094 1193.121094 L 1167.371094 1251.339844 "/>
<path fill-rule="nonzero" fill="rgb(14.892578%, 15.696716%, 22.75238%)" fill-opacity="1" d="M 1271.75 1251.339844 L 1213.53125 1251.339844 L 1213.53125 1193.121094 L 1271.75 1193.121094 L 1271.75 1251.339844 "/>
<path fill-rule="nonzero" fill="rgb(14.892578%, 15.696716%, 22.75238%)" fill-opacity="1" d="M 1376.128906 1251.339844 L 1317.910156 1251.339844 L 1317.910156 1193.121094 L 1376.128906 1193.121094 L 1376.128906 1251.339844 "/>
<path fill-rule="nonzero" fill="rgb(14.892578%, 15.696716%, 22.75238%)" fill-opacity="1" d="M 1167.371094 1340.488281 L 1109.148438 1340.488281 L 1109.148438 1282.269531 L 1167.371094 1282.269531 L 1167.371094 1340.488281 "/>
<path fill-rule="nonzero" fill="rgb(14.892578%, 15.696716%, 22.75238%)" fill-opacity="1" d="M 1271.75 1340.488281 L 1213.53125 1340.488281 L 1213.53125 1282.269531 L 1271.75 1282.269531 L 1271.75 1340.488281 "/>
<path fill-rule="nonzero" fill="rgb(14.892578%, 15.696716%, 22.75238%)" fill-opacity="1" d="M 1376.128906 1340.488281 L 1317.910156 1340.488281 L 1317.910156 1282.269531 L 1376.128906 1282.269531 L 1376.128906 1340.488281 "/>
<path fill-rule="nonzero" fill="rgb(14.892578%, 15.696716%, 22.75238%)" fill-opacity="1" d="M 1167.371094 1429.640625 L 1109.148438 1429.640625 L 1109.148438 1371.421875 L 1167.371094 1371.421875 L 1167.371094 1429.640625 "/>
<path fill-rule="nonzero" fill="rgb(14.892578%, 15.696716%, 22.75238%)" fill-opacity="1" d="M 1271.75 1429.640625 L 1213.53125 1429.640625 L 1213.53125 1371.421875 L 1271.75 1371.421875 L 1271.75 1429.640625 "/>
<path fill-rule="nonzero" fill="rgb(14.892578%, 15.696716%, 22.75238%)" fill-opacity="1" d="M 1376.128906 1429.640625 L 1317.910156 1429.640625 L 1317.910156 1371.421875 L 1376.128906 1371.421875 L 1376.128906 1429.640625 "/>
<path fill-rule="nonzero" fill="rgb(14.892578%, 15.696716%, 22.75238%)" fill-opacity="1" d="M 1167.371094 1518.789062 L 1109.148438 1518.789062 L 1109.148438 1460.578125 L 1167.371094 1460.578125 L 1167.371094 1518.789062 "/>
<path fill-rule="nonzero" fill="rgb(14.892578%, 15.696716%, 22.75238%)" fill-opacity="1" d="M 1271.75 1518.789062 L 1213.53125 1518.789062 L 1213.53125 1460.578125 L 1271.75 1460.578125 L 1271.75 1518.789062 "/>
<path fill-rule="nonzero" fill="rgb(14.892578%, 15.696716%, 22.75238%)" fill-opacity="1" d="M 1376.128906 1518.789062 L 1317.910156 1518.789062 L 1317.910156 1460.578125 L 1376.128906 1460.578125 L 1376.128906 1518.789062 "/>
<path fill-rule="nonzero" fill="rgb(14.892578%, 15.696716%, 22.75238%)" fill-opacity="1" d="M 1167.371094 1607.941406 L 1109.148438 1607.941406 L 1109.148438 1549.730469 L 1167.371094 1549.730469 L 1167.371094 1607.941406 "/>
<path fill-rule="nonzero" fill="rgb(14.892578%, 15.696716%, 22.75238%)" fill-opacity="1" d="M 1271.75 1607.941406 L 1213.53125 1607.941406 L 1213.53125 1549.730469 L 1271.75 1549.730469 L 1271.75 1607.941406 "/>
<path fill-rule="nonzero" fill="rgb(14.892578%, 15.696716%, 22.75238%)" fill-opacity="1" d="M 1376.128906 1607.941406 L 1317.910156 1607.941406 L 1317.910156 1549.730469 L 1376.128906 1549.730469 L 1376.128906 1607.941406 "/>
<path fill-rule="nonzero" fill="rgb(14.892578%, 15.696716%, 22.75238%)" fill-opacity="1" d="M 1477.039062 1615.339844 L 1460.878906 1615.339844 L 1460.878906 831.761719 L 1477.039062 831.761719 L 1477.039062 1615.339844 "/>
<path fill-rule="nonzero" fill="rgb(14.892578%, 15.696716%, 22.75238%)" fill-opacity="1" d="M 1522.238281 1615.339844 L 1506.078125 1615.339844 L 1506.078125 831.761719 L 1522.238281 831.761719 L 1522.238281 1615.339844 "/>
<path fill-rule="nonzero" fill="rgb(14.892578%, 15.696716%, 22.75238%)" fill-opacity="1" d="M 1567.449219 1615.339844 L 1551.289062 1615.339844 L 1551.289062 831.761719 L 1567.449219 831.761719 L 1567.449219 1615.339844 "/>
<path fill-rule="nonzero" fill="rgb(14.892578%, 15.696716%, 22.75238%)" fill-opacity="1" d="M 1612.648438 1615.339844 L 1596.488281 1615.339844 L 1596.488281 831.761719 L 1612.648438 831.761719 L 1612.648438 1615.339844 "/>
<path fill-rule="nonzero" fill="rgb(14.892578%, 15.696716%, 22.75238%)" fill-opacity="1" d="M 1657.859375 1615.339844 L 1641.699219 1615.339844 L 1641.699219 831.761719 L 1657.859375 831.761719 L 1657.859375 1615.339844 "/>
<path fill-rule="nonzero" fill="rgb(14.892578%, 15.696716%, 22.75238%)" fill-opacity="1" d="M 1703.058594 1615.339844 L 1686.898438 1615.339844 L 1686.898438 831.761719 L 1703.058594 831.761719 L 1703.058594 1615.339844 "/>
<path fill-rule="nonzero" fill="rgb(14.892578%, 15.696716%, 22.75238%)" fill-opacity="1" d="M 1748.269531 1615.339844 L 1732.109375 1615.339844 L 1732.109375 831.761719 L 1748.269531 831.761719 L 1748.269531 1615.339844 "/>
<path fill-rule="nonzero" fill="rgb(14.892578%, 15.696716%, 22.75238%)" fill-opacity="1" d="M 1938.050781 1299.378906 L 1808.699219 1299.378906 L 1808.699219 1252.910156 L 1938.050781 1252.910156 L 1938.050781 1299.378906 "/>
<path fill-rule="nonzero" fill="rgb(14.892578%, 15.696716%, 22.75238%)" fill-opacity="1" d="M 2107.96875 1299.378906 L 1978.628906 1299.378906 L 1978.628906 1252.910156 L 2107.96875 1252.910156 L 2107.96875 1299.378906 "/>
<path fill-rule="nonzero" fill="rgb(14.892578%, 15.696716%, 22.75238%)" fill-opacity="1" d="M 1938.050781 1362.78125 L 1808.699219 1362.78125 L 1808.699219 1316.308594 L 1938.050781 1316.308594 L 1938.050781 1362.78125 "/>
<path fill-rule="nonzero" fill="rgb(14.892578%, 15.696716%, 22.75238%)" fill-opacity="1" d="M 2107.96875 1362.78125 L 1978.628906 1362.78125 L 1978.628906 1316.308594 L 2107.96875 1316.308594 L 2107.96875 1362.78125 "/>
<path fill-rule="nonzero" fill="rgb(14.892578%, 15.696716%, 22.75238%)" fill-opacity="1" d="M 1938.050781 1426.179688 L 1808.699219 1426.179688 L 1808.699219 1379.710938 L 1938.050781 1379.710938 L 1938.050781 1426.179688 "/>
<path fill-rule="nonzero" fill="rgb(14.892578%, 15.696716%, 22.75238%)" fill-opacity="1" d="M 2107.96875 1426.179688 L 1978.628906 1426.179688 L 1978.628906 1379.710938 L 2107.96875 1379.710938 L 2107.96875 1426.179688 "/>
<path fill-rule="nonzero" fill="rgb(14.892578%, 15.696716%, 22.75238%)" fill-opacity="1" d="M 1938.050781 1489.578125 L 1808.699219 1489.578125 L 1808.699219 1443.109375 L 1938.050781 1443.109375 L 1938.050781 1489.578125 "/>
<path fill-rule="nonzero" fill="rgb(14.892578%, 15.696716%, 22.75238%)" fill-opacity="1" d="M 2107.96875 1489.578125 L 1978.628906 1489.578125 L 1978.628906 1443.109375 L 2107.96875 1443.109375 L 2107.96875 1489.578125 "/>
<path fill-rule="nonzero" fill="rgb(14.892578%, 15.696716%, 22.75238%)" fill-opacity="1" d="M 1938.050781 1552.988281 L 1808.699219 1552.988281 L 1808.699219 1506.511719 L 1938.050781 1506.511719 L 1938.050781 1552.988281 "/>
<path fill-rule="nonzero" fill="rgb(14.892578%, 15.696716%, 22.75238%)" fill-opacity="1" d="M 2107.96875 1552.988281 L 1978.628906 1552.988281 L 1978.628906 1506.511719 L 2107.96875 1506.511719 L 2107.96875 1552.988281 "/>
<path fill-rule="nonzero" fill="rgb(14.892578%, 15.696716%, 22.75238%)" fill-opacity="1" d="M 1938.050781 1616.390625 L 1808.699219 1616.390625 L 1808.699219 1569.910156 L 1938.050781 1569.910156 L 1938.050781 1616.390625 "/>
<path fill-rule="nonzero" fill="rgb(14.892578%, 15.696716%, 22.75238%)" fill-opacity="1" d="M 2107.96875 1616.390625 L 1978.628906 1616.390625 L 1978.628906 1569.910156 L 2107.96875 1569.910156 L 2107.96875 1616.390625 "/>
<path fill-rule="nonzero" fill="rgb(14.892578%, 15.696716%, 22.75238%)" fill-opacity="1" d="M 2250.308594 1034.078125 L 2166.050781 1034.078125 L 2166.050781 1007.800781 L 2250.308594 1007.800781 L 2250.308594 1034.078125 "/>
<path fill-rule="nonzero" fill="rgb(14.892578%, 15.696716%, 22.75238%)" fill-opacity="1" d="M 2371.53125 1034.078125 L 2287.269531 1034.078125 L 2287.269531 1007.800781 L 2371.53125 1007.800781 L 2371.53125 1034.078125 "/>
<path fill-rule="nonzero" fill="rgb(14.892578%, 15.696716%, 22.75238%)" fill-opacity="1" d="M 2492.75 1034.078125 L 2408.488281 1034.078125 L 2408.488281 1007.800781 L 2492.75 1007.800781 L 2492.75 1034.078125 "/>
<path fill-rule="nonzero" fill="rgb(14.892578%, 15.696716%, 22.75238%)" fill-opacity="1" d="M 2250.308594 1083.070312 L 2166.050781 1083.070312 L 2166.050781 1056.789062 L 2250.308594 1056.789062 L 2250.308594 1083.070312 "/>
<path fill-rule="nonzero" fill="rgb(14.892578%, 15.696716%, 22.75238%)" fill-opacity="1" d="M 2371.53125 1083.070312 L 2287.269531 1083.070312 L 2287.269531 1056.789062 L 2371.53125 1056.789062 L 2371.53125 1083.070312 "/>
<path fill-rule="nonzero" fill="rgb(14.892578%, 15.696716%, 22.75238%)" fill-opacity="1" d="M 2492.75 1083.070312 L 2408.488281 1083.070312 L 2408.488281 1056.789062 L 2492.75 1056.789062 L 2492.75 1083.070312 "/>
<path fill-rule="nonzero" fill="rgb(14.892578%, 15.696716%, 22.75238%)" fill-opacity="1" d="M 2250.308594 1132.058594 L 2166.050781 1132.058594 L 2166.050781 1105.78125 L 2250.308594 1105.78125 L 2250.308594 1132.058594 "/>
<path fill-rule="nonzero" fill="rgb(14.892578%, 15.696716%, 22.75238%)" fill-opacity="1" d="M 2371.53125 1132.058594 L 2287.269531 1132.058594 L 2287.269531 1105.78125 L 2371.53125 1105.78125 L 2371.53125 1132.058594 "/>
<path fill-rule="nonzero" fill="rgb(14.892578%, 15.696716%, 22.75238%)" fill-opacity="1" d="M 2492.75 1132.058594 L 2408.488281 1132.058594 L 2408.488281 1105.78125 L 2492.75 1105.78125 L 2492.75 1132.058594 "/>
<path fill-rule="nonzero" fill="rgb(14.892578%, 15.696716%, 22.75238%)" fill-opacity="1" d="M 2250.308594 1181.039062 L 2166.050781 1181.039062 L 2166.050781 1154.761719 L 2250.308594 1154.761719 L 2250.308594 1181.039062 "/>
<path fill-rule="nonzero" fill="rgb(14.892578%, 15.696716%, 22.75238%)" fill-opacity="1" d="M 2371.53125 1181.039062 L 2287.269531 1181.039062 L 2287.269531 1154.761719 L 2371.53125 1154.761719 L 2371.53125 1181.039062 "/>
<path fill-rule="nonzero" fill="rgb(14.892578%, 15.696716%, 22.75238%)" fill-opacity="1" d="M 2492.75 1181.039062 L 2408.488281 1181.039062 L 2408.488281 1154.761719 L 2492.75 1154.761719 L 2492.75 1181.039062 "/>
<path fill-rule="nonzero" fill="rgb(14.892578%, 15.696716%, 22.75238%)" fill-opacity="1" d="M 2250.308594 1230.03125 L 2166.050781 1230.03125 L 2166.050781 1203.75 L 2250.308594 1203.75 L 2250.308594 1230.03125 "/>
<path fill-rule="nonzero" fill="rgb(14.892578%, 15.696716%, 22.75238%)" fill-opacity="1" d="M 2371.53125 1230.03125 L 2287.269531 1230.03125 L 2287.269531 1203.75 L 2371.53125 1203.75 L 2371.53125 1230.03125 "/>
<path fill-rule="nonzero" fill="rgb(14.892578%, 15.696716%, 22.75238%)" fill-opacity="1" d="M 2492.75 1230.03125 L 2408.488281 1230.03125 L 2408.488281 1203.75 L 2492.75 1203.75 L 2492.75 1230.03125 "/>
<path fill-rule="nonzero" fill="rgb(14.892578%, 15.696716%, 22.75238%)" fill-opacity="1" d="M 2250.308594 1279.011719 L 2166.050781 1279.011719 L 2166.050781 1252.730469 L 2250.308594 1252.730469 L 2250.308594 1279.011719 "/>
<path fill-rule="nonzero" fill="rgb(14.892578%, 15.696716%, 22.75238%)" fill-opacity="1" d="M 2371.53125 1279.011719 L 2287.269531 1279.011719 L 2287.269531 1252.730469 L 2371.53125 1252.730469 L 2371.53125 1279.011719 "/>
<path fill-rule="nonzero" fill="rgb(14.892578%, 15.696716%, 22.75238%)" fill-opacity="1" d="M 2492.75 1279.011719 L 2408.488281 1279.011719 L 2408.488281 1252.730469 L 2492.75 1252.730469 L 2492.75 1279.011719 "/>
<path fill-rule="nonzero" fill="rgb(14.892578%, 15.696716%, 22.75238%)" fill-opacity="1" d="M 2250.308594 1328 L 2166.050781 1328 L 2166.050781 1301.71875 L 2250.308594 1301.71875 L 2250.308594 1328 "/>
<path fill-rule="nonzero" fill="rgb(14.892578%, 15.696716%, 22.75238%)" fill-opacity="1" d="M 2371.53125 1328 L 2287.269531 1328 L 2287.269531 1301.71875 L 2371.53125 1301.71875 L 2371.53125 1328 "/>
<path fill-rule="nonzero" fill="rgb(14.892578%, 15.696716%, 22.75238%)" fill-opacity="1" d="M 2492.75 1328 L 2408.488281 1328 L 2408.488281 1301.71875 L 2492.75 1301.71875 L 2492.75 1328 "/>
<path fill-rule="nonzero" fill="rgb(14.892578%, 15.696716%, 22.75238%)" fill-opacity="1" d="M 2250.308594 1376.980469 L 2166.050781 1376.980469 L 2166.050781 1350.699219 L 2250.308594 1350.699219 L 2250.308594 1376.980469 "/>
<path fill-rule="nonzero" fill="rgb(14.892578%, 15.696716%, 22.75238%)" fill-opacity="1" d="M 2371.53125 1376.980469 L 2287.269531 1376.980469 L 2287.269531 1350.699219 L 2371.53125 1350.699219 L 2371.53125 1376.980469 "/>
<path fill-rule="nonzero" fill="rgb(14.892578%, 15.696716%, 22.75238%)" fill-opacity="1" d="M 2492.75 1376.980469 L 2408.488281 1376.980469 L 2408.488281 1350.699219 L 2492.75 1350.699219 L 2492.75 1376.980469 "/>
<path fill-rule="nonzero" fill="rgb(14.892578%, 15.696716%, 22.75238%)" fill-opacity="1" d="M 2250.308594 1425.96875 L 2166.050781 1425.96875 L 2166.050781 1399.691406 L 2250.308594 1399.691406 L 2250.308594 1425.96875 "/>
<path fill-rule="nonzero" fill="rgb(14.892578%, 15.696716%, 22.75238%)" fill-opacity="1" d="M 2371.53125 1425.96875 L 2287.269531 1425.96875 L 2287.269531 1399.691406 L 2371.53125 1399.691406 L 2371.53125 1425.96875 "/>
<path fill-rule="nonzero" fill="rgb(14.892578%, 15.696716%, 22.75238%)" fill-opacity="1" d="M 2492.75 1425.96875 L 2408.488281 1425.96875 L 2408.488281 1399.691406 L 2492.75 1399.691406 L 2492.75 1425.96875 "/>
<path fill-rule="nonzero" fill="rgb(14.892578%, 15.696716%, 22.75238%)" fill-opacity="1" d="M 2250.308594 1474.960938 L 2166.050781 1474.960938 L 2166.050781 1448.679688 L 2250.308594 1448.679688 L 2250.308594 1474.960938 "/>
<path fill-rule="nonzero" fill="rgb(14.892578%, 15.696716%, 22.75238%)" fill-opacity="1" d="M 2371.53125 1474.960938 L 2287.269531 1474.960938 L 2287.269531 1448.679688 L 2371.53125 1448.679688 L 2371.53125 1474.960938 "/>
<path fill-rule="nonzero" fill="rgb(14.892578%, 15.696716%, 22.75238%)" fill-opacity="1" d="M 2492.75 1474.960938 L 2408.488281 1474.960938 L 2408.488281 1448.679688 L 2492.75 1448.679688 L 2492.75 1474.960938 "/>
<path fill-rule="nonzero" fill="rgb(14.892578%, 15.696716%, 22.75238%)" fill-opacity="1" d="M 2250.308594 1523.941406 L 2166.050781 1523.941406 L 2166.050781 1497.660156 L 2250.308594 1497.660156 L 2250.308594 1523.941406 "/>
<path fill-rule="nonzero" fill="rgb(14.892578%, 15.696716%, 22.75238%)" fill-opacity="1" d="M 2371.53125 1523.941406 L 2287.269531 1523.941406 L 2287.269531 1497.660156 L 2371.53125 1497.660156 L 2371.53125 1523.941406 "/>
<path fill-rule="nonzero" fill="rgb(14.892578%, 15.696716%, 22.75238%)" fill-opacity="1" d="M 2492.75 1523.941406 L 2408.488281 1523.941406 L 2408.488281 1497.660156 L 2492.75 1497.660156 L 2492.75 1523.941406 "/>
<path fill-rule="nonzero" fill="rgb(14.892578%, 15.696716%, 22.75238%)" fill-opacity="1" d="M 2250.308594 1572.929688 L 2166.050781 1572.929688 L 2166.050781 1546.648438 L 2250.308594 1546.648438 L 2250.308594 1572.929688 "/>
<path fill-rule="nonzero" fill="rgb(14.892578%, 15.696716%, 22.75238%)" fill-opacity="1" d="M 2371.53125 1572.929688 L 2287.269531 1572.929688 L 2287.269531 1546.648438 L 2371.53125 1546.648438 L 2371.53125 1572.929688 "/>
<path fill-rule="nonzero" fill="rgb(14.892578%, 15.696716%, 22.75238%)" fill-opacity="1" d="M 2492.75 1572.929688 L 2408.488281 1572.929688 L 2408.488281 1546.648438 L 2492.75 1546.648438 L 2492.75 1572.929688 "/>
<path fill-rule="nonzero" fill="rgb(14.892578%, 15.696716%, 22.75238%)" fill-opacity="1" d="M 2250.308594 1621.910156 L 2166.050781 1621.910156 L 2166.050781 1595.628906 L 2250.308594 1595.628906 L 2250.308594 1621.910156 "/>
<path fill-rule="nonzero" fill="rgb(14.892578%, 15.696716%, 22.75238%)" fill-opacity="1" d="M 2371.53125 1621.910156 L 2287.269531 1621.910156 L 2287.269531 1595.628906 L 2371.53125 1595.628906 L 2371.53125 1621.910156 "/>
<path fill-rule="nonzero" fill="rgb(14.892578%, 15.696716%, 22.75238%)" fill-opacity="1" d="M 2492.75 1621.910156 L 2408.488281 1621.910156 L 2408.488281 1595.628906 L 2492.75 1595.628906 L 2492.75 1621.910156 "/>
</svg>
